<?xml version="1.0" encoding="UTF-8"?>
<svg width="520px" height="260px" viewBox="0 0 520 260" version="1.1" xmlns="http://www.w3.org/2000/svg" xmlns:xlink="http://www.w3.org/1999/xlink">
    <!-- Generator: Sketch 49 (51002) - http://www.bohemiancoding.com/sketch -->
    <title>As A Developer</title>
    <desc>Created with Sketch.</desc>
    <defs></defs>
    <g id="As-A-Developer" stroke="none" stroke-width="1" fill="none" fill-rule="evenodd">
        <g id="Group-17" transform="translate(220.000000, 120.000000)">
            <rect id="Rectangle-26" fill="#FFFFFF" x="0" y="0" width="65" height="46"></rect>
            <polygon id="Path-9" fill="#000000" fill-rule="nonzero" points="44.75 7 45.25 7 45.25 19.5 44.75 19.5"></polygon>
            <polygon id="Path-9-Copy" fill="#000000" fill-rule="nonzero" points="57.75 36 58.25 36 58.25 43.5166482 57.75 43.5166482"></polygon>
            <circle id="Oval-12" fill="#000000" cx="45" cy="5" r="1"></circle>
            <circle id="Oval-12-Copy" fill="#000000" cx="19" cy="23" r="1"></circle>
            <polygon id="Path-8-Copy" fill="#000000" fill-rule="nonzero" points="20.1767767 39.1767767 19.8232233 38.8232233 27.3232233 31.3232233 27.6767767 31.6767767"></polygon>
            <circle id="Oval-12-Copy-3" fill="#000000" cx="19" cy="40" r="1"></circle>
            <circle id="Oval-12-Copy-4" fill="#000000" cx="51" cy="30" r="1"></circle>
            <circle id="Oval-12-Copy-6" fill="#000000" cx="58" cy="34" r="1"></circle>
            <circle id="Oval-12-Copy-5" fill="#000000" cx="29" cy="30" r="1"></circle>
            <polygon id="Path-8-Copy-2" fill="#000000" fill-rule="nonzero" transform="translate(47.750000, 26.750000) scale(-1, 1) translate(-47.750000, -26.750000) " points="45.6534852 28.6973381 45.3465148 28.3026619 49.8465148 24.8026619 50.1534852 25.1973381"></polygon>
            <polygon id="Path-8-Copy-4" fill="#000000" fill-rule="nonzero" points="31 30.25 31 29.75 49.5067555 29.75 49.5067555 30.25"></polygon>
            <polygon id="Path-11" fill="#000000" fill-rule="nonzero" points="5 35.25 5 34.75 11.5 34.75 11.5 35.25"></polygon>
            <polygon id="Path-11-Copy" fill="#000000" fill-rule="nonzero" points="5 37.25 5 36.75 13.5146932 36.75 13.5146932 37.25"></polygon>
            <polygon id="Path-11-Copy-2" fill="#000000" fill-rule="nonzero" points="5 40.25 5 39.75 13.5146932 39.75 13.5146932 40.25"></polygon>
            <polygon id="Path-8-Copy-3" fill="#000000" fill-rule="nonzero" points="19.25 38.5092561 18.75 38.5092561 18.75 25 19.25 25"></polygon>
            <polygon id="Path-8" fill="#000000" fill-rule="nonzero" points="20.6767767 21.6767767 20.3232233 21.3232233 29.3232233 12.3232233 29.6767767 12.6767767"></polygon>
            <polygon id="Path-7" fill="#000000" fill-rule="nonzero" points="7 5.25 7 4.75 43 4.75 43 5.25"></polygon>
            <path d="M45.5,13.25 L45.5,12.75 L55,12.75 C57.1473593,12.75 58.25,14.0364142 58.25,16.5 L58.25,32.5 L57.75,32.5 L57.75,16.5 C57.75,14.2969191 56.8526407,13.25 55,13.25 L45.5,13.25 Z" id="Path-10" fill="#000000" fill-rule="nonzero"></path>
        </g>
        <g id="Group-13" transform="translate(47.000000, 30.000000)">
            <rect id="Rectangle-12" fill="#FFFFFF" x="0" y="0" width="61" height="15"></rect>
            <polygon id="Line-6" fill="#000000" fill-rule="nonzero" points="20 7 20 6 39 6 39 7"></polygon>
            <polygon id="Line-6-Copy" fill="#000000" fill-rule="nonzero" points="24 10 24 9 35 9 35 10"></polygon>
            <circle id="Oval-4" fill="#000000" cx="4.5" cy="7.5" r="1"></circle>
            <circle id="Oval-4-Copy" fill="#000000" cx="55.5" cy="7.5" r="1"></circle>
        </g>
        <rect id="Rectangle-12" fill="#FFFFFF" x="385" y="85" width="58" height="25"></rect>
        <polygon id="Line-6" fill="#000000" fill-rule="nonzero" points="405 94 405 93 424 93 424 94"></polygon>
        <polygon id="Line-6-Copy" fill="#000000" fill-rule="nonzero" points="409 96 409 95 420 95 420 96"></polygon>
        <polygon id="Line-6-Copy-2" fill="#000000" fill-rule="nonzero" points="406 100 406 99 423 99 423 100"></polygon>
        <polygon id="Line-6-Copy-3" fill="#000000" fill-rule="nonzero" points="412 102 412 101 417 101 417 102"></polygon>
        <circle id="Oval-4" fill="#000000" cx="388.5" cy="97.5" r="1"></circle>
        <circle id="Oval-4-Copy" fill="#000000" cx="437.5" cy="97.5" r="1"></circle>
        <g id="Group-15" transform="translate(213.000000, 100.000000)">
            <rect id="Rectangle-12" fill="#FFFFFF" x="0" y="0" width="50" height="9"></rect>
            <polygon id="Line-6-Copy" fill="#000000" fill-rule="nonzero" points="18 5 18 4 32 4 32 5"></polygon>
            <circle id="Oval-4" fill="#000000" cx="2.5" cy="4.5" r="1"></circle>
            <ellipse id="Oval-4-Copy" fill="#000000" cx="47.5" cy="4.49854227" rx="1" ry="1"></ellipse>
        </g>
        <g id="Group-8" transform="translate(75.000000, 65.000000)">
            <rect id="Rectangle-13-Copy" fill="#FFFFFF" x="0" y="0" width="45" height="15"></rect>
            <circle id="Oval-5" fill="#000000" cx="34.5" cy="7.5" r="5.5"></circle>
            <circle id="Oval-6" fill="#FFFFFF" cx="37.5" cy="5.5" r="1"></circle>
        </g>
        <g id="Group-16" transform="translate(180.000000, 120.000000)">
            <rect id="Rectangle-13-Copy" fill="#FFFFFF" x="0" y="0" width="35" height="12"></rect>
            <circle id="Oval-5" fill="#000000" cx="25" cy="6" r="5"></circle>
            <circle id="Oval-6" fill="#FFFFFF" cx="28.5" cy="4.5" r="1"></circle>
        </g>
        <g id="Group-16-Copy" transform="translate(180.000000, 137.000000)">
            <rect id="Rectangle-13-Copy" fill="#FFFFFF" x="0" y="0" width="35" height="12"></rect>
            <circle id="Oval-5" fill="#000000" cx="25" cy="6" r="5"></circle>
            <circle id="Oval-6" fill="#FFFFFF" cx="21.5" cy="5.5" r="1"></circle>
        </g>
        <g id="Group-7" transform="translate(35.000000, 65.000000)">
            <rect id="Rectangle-13" fill="#FFFFFF" x="0" y="0" width="35" height="36"></rect>
            <polygon id="Line-7-Copy" fill="#000000" fill-rule="nonzero" points="26 15 26 14 35 14 35 15"></polygon>
            <polygon id="Line-7-Copy-2" fill="#000000" fill-rule="nonzero" points="24 21 24 20 35 20 35 21"></polygon>
            <polygon id="Line-7-Copy-3" fill="#000000" fill-rule="nonzero" points="20 27 20 26 35 26 35 27"></polygon>
            <rect id="Rectangle-14" fill="#000000" x="2" y="6" width="8" height="23"></rect>
            <polygon id="Line-7" fill="#000000" fill-rule="nonzero" points="22 9 22 8 35 8 35 9"></polygon>
        </g>
        <rect id="Rectangle-13" fill="#FFFFFF" transform="translate(215.500000, 202.500000) rotate(-270.000000) translate(-215.500000, -202.500000) " x="193" y="167" width="45" height="71"></rect>
        <circle id="Oval-13" stroke="#000000" stroke-width="0.5" cx="195" cy="190" r="20"></circle>
        <circle id="Oval-13-Copy" stroke-opacity="0.5" stroke="#000000" stroke-width="0.5" cx="195" cy="190" r="23"></circle>
        <circle id="Oval-13-Copy-2" stroke="#000000" stroke-width="0.5" cx="195" cy="190" r="27"></circle>
        <circle id="Oval-13-Copy-3" stroke-opacity="0.5" stroke="#000000" stroke-width="0.5" cx="195" cy="190" r="31"></circle>
        <rect id="Rectangle-17" fill="#FFFFFF" x="345" y="130" width="65" height="25"></rect>
        <circle id="Oval-15-Copy-3" fill="#000000" cx="401.25" cy="150.25" r="1"></circle>
        <path d="M401.25,152.5 C400.007359,152.5 399,151.492641 399,150.25 C399,149.007359 400.007359,148 401.25,148 C402.492641,148 403.5,149.007359 403.5,150.25 C403.5,151.492641 402.492641,152.5 401.25,152.5 Z M401.25,152.2 C402.326955,152.2 403.2,151.326955 403.2,150.25 C403.2,149.173045 402.326955,148.3 401.25,148.3 C400.173045,148.3 399.3,149.173045 399.3,150.25 C399.3,151.326955 400.173045,152.2 401.25,152.2 Z" id="Oval-15-Copy-2" fill="#000000" fill-rule="nonzero"></path>
        <rect id="Rectangle-17-Copy" fill="#FFFFFF" x="345" y="160" width="65" height="25"></rect>
        <circle id="Oval-15-Copy-9" fill="#000000" cx="397.25" cy="178.25" r="1"></circle>
        <path d="M397.25,180.5 C396.007359,180.5 395,179.492641 395,178.25 C395,177.007359 396.007359,176 397.25,176 C398.492641,176 399.5,177.007359 399.5,178.25 C399.5,179.492641 398.492641,180.5 397.25,180.5 Z M397.25,180.2 C398.326955,180.2 399.2,179.326955 399.2,178.25 C399.2,177.173045 398.326955,176.3 397.25,176.3 C396.173045,176.3 395.3,177.173045 395.3,178.25 C395.3,179.326955 396.173045,180.2 397.25,180.2 Z" id="Oval-15-Copy-8" fill="#000000" fill-rule="nonzero"></path>
        <circle id="Oval-15-Copy-11" fill="#000000" cx="352.25" cy="178.25" r="1"></circle>
        <path d="M352.25,180.5 C351.007359,180.5 350,179.492641 350,178.25 C350,177.007359 351.007359,176 352.25,176 C353.492641,176 354.5,177.007359 354.5,178.25 C354.5,179.492641 353.492641,180.5 352.25,180.5 Z M352.25,180.2 C353.326955,180.2 354.2,179.326955 354.2,178.25 C354.2,177.173045 353.326955,176.3 352.25,176.3 C351.173045,176.3 350.3,177.173045 350.3,178.25 C350.3,179.326955 351.173045,180.2 352.25,180.2 Z" id="Oval-15-Copy-10" fill="#000000" fill-rule="nonzero"></path>
        <circle id="Oval-15-Copy-13" fill="#000000" cx="352.25" cy="140.25" r="1"></circle>
        <path d="M352.25,142.5 C351.007359,142.5 350,141.492641 350,140.25 C350,139.007359 351.007359,138 352.25,138 C353.492641,138 354.5,139.007359 354.5,140.25 C354.5,141.492641 353.492641,142.5 352.25,142.5 Z M352.25,142.2 C353.326955,142.2 354.2,141.326955 354.2,140.25 C354.2,139.173045 353.326955,138.3 352.25,138.3 C351.173045,138.3 350.3,139.173045 350.3,140.25 C350.3,141.326955 351.173045,142.2 352.25,142.2 Z" id="Oval-15-Copy-12" fill="#000000" fill-rule="nonzero"></path>
        <rect id="Rectangle-17-Copy-2" fill="#FFFFFF" x="345" y="190" width="65" height="25"></rect>
        <rect id="Rectangle-17-Copy-3" fill="#FFFFFF" x="415" y="175" width="65" height="40"></rect>
        <rect id="Rectangle-17-Copy-4" fill="#FFFFFF" x="415" y="130" width="65" height="40"></rect>
        <g id="Group-16-Copy-2" transform="translate(180.000000, 154.000000)">
            <rect id="Rectangle-13-Copy" fill="#FFFFFF" x="0" y="0" width="35" height="12"></rect>
            <circle id="Oval-5" fill="#000000" cx="25" cy="6" r="5"></circle>
            <circle id="Oval-6" fill="#FFFFFF" cx="24.5" cy="9.5" r="1"></circle>
        </g>
        <rect id="Rectangle-17-Copy-8" fill="#FFFFFF" x="372" y="220" width="65" height="25"></rect>
        <circle id="Oval-15-Copy-17" fill="#000000" cx="425.25" cy="197.25" r="1"></circle>
        <path d="M425.25,199.5 C424.007359,199.5 423,198.492641 423,197.25 C423,196.007359 424.007359,195 425.25,195 C426.492641,195 427.5,196.007359 427.5,197.25 C427.5,198.492641 426.492641,199.5 425.25,199.5 Z M425.25,199.2 C426.326955,199.2 427.2,198.326955 427.2,197.25 C427.2,196.173045 426.326955,195.3 425.25,195.3 C424.173045,195.3 423.3,196.173045 423.3,197.25 C423.3,198.326955 424.173045,199.2 425.25,199.2 Z" id="Oval-15-Copy-16" fill="#000000" fill-rule="nonzero"></path>
        <circle id="Oval-15-Copy-21" fill="#000000" cx="385.25" cy="232.25" r="1"></circle>
        <path d="M385.25,234.5 C384.007359,234.5 383,233.492641 383,232.25 C383,231.007359 384.007359,230 385.25,230 C386.492641,230 387.5,231.007359 387.5,232.25 C387.5,233.492641 386.492641,234.5 385.25,234.5 Z M385.25,234.2 C386.326955,234.2 387.2,233.326955 387.2,232.25 C387.2,231.173045 386.326955,230.3 385.25,230.3 C384.173045,230.3 383.3,231.173045 383.3,232.25 C383.3,233.326955 384.173045,234.2 385.25,234.2 Z" id="Oval-15-Copy-20" fill="#000000" fill-rule="nonzero"></path>
        <circle id="Oval-15-Copy-23" fill="#000000" cx="406.25" cy="238.25" r="1"></circle>
        <path d="M406.25,240.5 C405.007359,240.5 404,239.492641 404,238.25 C404,237.007359 405.007359,236 406.25,236 C407.492641,236 408.5,237.007359 408.5,238.25 C408.5,239.492641 407.492641,240.5 406.25,240.5 Z M406.25,240.2 C407.326955,240.2 408.2,239.326955 408.2,238.25 C408.2,237.173045 407.326955,236.3 406.25,236.3 C405.173045,236.3 404.3,237.173045 404.3,238.25 C404.3,239.326955 405.173045,240.2 406.25,240.2 Z" id="Oval-15-Copy-22" fill="#000000" fill-rule="nonzero"></path>
        <circle id="Oval-15-Copy-19" fill="#000000" cx="390.25" cy="197.25" r="1"></circle>
        <path d="M390.25,199.5 C389.007359,199.5 388,198.492641 388,197.25 C388,196.007359 389.007359,195 390.25,195 C391.492641,195 392.5,196.007359 392.5,197.25 C392.5,198.492641 391.492641,199.5 390.25,199.5 Z M390.25,199.2 C391.326955,199.2 392.2,198.326955 392.2,197.25 C392.2,196.173045 391.326955,195.3 390.25,195.3 C389.173045,195.3 388.3,196.173045 388.3,197.25 C388.3,198.326955 389.173045,199.2 390.25,199.2 Z" id="Oval-15-Copy-18" fill="#000000" fill-rule="nonzero"></path>
        <rect id="Rectangle-17-Copy-12" fill="#FFFFFF" x="285" y="220" width="35" height="25"></rect>
        <rect id="Rectangle-17-Copy-13" fill="#FFFFFF" x="265" y="195" width="5" height="5"></rect>
        <rect id="Rectangle-17-Copy-14" fill="#FFFFFF" x="270" y="205" width="3" height="3"></rect>
        <rect id="Rectangle-17-Copy-15" fill="#FFFFFF" x="263" y="208" width="1" height="1"></rect>
        <rect id="Rectangle-17-Copy-16" fill="#FFFFFF" x="278" y="210" width="2" height="2"></rect>
        <rect id="Rectangle-17-Copy-17" fill="#FFFFFF" x="267" y="212" width="3" height="3"></rect>
        <rect id="Rectangle-17-Copy-18" fill="#FFFFFF" x="273" y="218" width="4" height="4"></rect>
        <g id="Group-14" transform="translate(290.000000, 120.000000)">
            <rect id="Rectangle-16" fill="#FFFFFF" x="0" y="0" width="5" height="46"></rect>
            <polygon id="Line-8" fill="#000000" fill-rule="nonzero" points="2 2 3 2 3 44 2 44"></polygon>
            <polygon id="Line-8-Copy" fill="#000000" fill-rule="nonzero" points="1 29 4 29 4 39 1 39"></polygon>
        </g>
        <g id="Group-12" transform="translate(75.000000, 150.000000)">
            <rect id="Rectangle-19" fill="#FFFFFF" x="0" y="0" width="45" height="30"></rect>
            <g id="Group-9" transform="translate(5.000000, 6.000000)" fill="#000000" fill-rule="nonzero">
                <polygon id="Line-9" points="0.625 2 0 2 0 1 35 1 35 2 34.375 2"></polygon>
                <polygon id="Line-9-Copy-4" points="22 3 22 0 30 0 30 3"></polygon>
            </g>
            <g id="Group-10" transform="translate(5.000000, 14.000000)" fill="#000000" fill-rule="nonzero">
                <polygon id="Line-9-Copy-3" points="0.625 2 0 2 0 1 35 1 35 2 34.375 2"></polygon>
                <polygon id="Line-9-Copy-5" points="3 3 3 0 11 0 11 3"></polygon>
            </g>
            <g id="Group-11" transform="translate(5.000000, 22.000000)" fill="#000000" fill-rule="nonzero">
                <polygon id="Line-9-Copy-7" points="0.625 2 0 2 0 1 35 1 35 2 34.375 2"></polygon>
                <polygon id="Line-9-Copy-6" points="18 3 18 0 26 0 26 3"></polygon>
            </g>
        </g>
        <g id="Group-4" transform="translate(35.000000, 110.000000)">
            <rect id="Rectangle-18" fill="#FFFFFF" x="0" y="0" width="35" height="70"></rect>
            <path d="M6,8 L6,21 L29,21 L29,8 L6,8 Z M5,7 L30,7 L30,22 L5,22 L5,7 Z" id="Rectangle" fill="#000000" fill-rule="nonzero"></path>
            <g id="Group-2" transform="translate(8.000000, 29.000000)">
                <circle id="Oval-5" fill="#000000" cx="9.5" cy="9.5" r="9.5"></circle>
                <ellipse id="Oval-6" fill="#FFFFFF" cx="4.99767828" cy="5" rx="1" ry="1"></ellipse>
            </g>
            <g id="Group-3" transform="translate(4.000000, 55.000000)" fill="#000000">
                <rect id="Rectangle-20" x="0" y="0" width="15" height="6"></rect>
                <rect id="Rectangle-20-Copy" x="16" y="0" width="11" height="2"></rect>
                <rect id="Rectangle-20-Copy-2" x="16" y="3" width="11" height="3"></rect>
            </g>
        </g>
        <polygon id="Line-9" fill="#FFFFFF" fill-rule="nonzero" points="340.244445 228.25 340.244445 227.75 363.25 227.75 363.25 228.25"></polygon>
        <polygon id="Line-9-Copy" fill="#FFFFFF" fill-rule="nonzero" points="353.240004 233.25 353.240004 232.75 366.25 232.75 366.25 233.25"></polygon>
        <polygon id="Line-9-Copy-2" fill="#FFFFFF" fill-rule="nonzero" points="347.241938 238.25 347.241938 237.75 363.25 237.75 363.25 238.25"></polygon>
        <path d="M5,211 L5,209 L15,209 C19.3405546,209 21.7583078,208.059763 22.9179497,206.3203 C23.8077985,204.985527 24,203.544016 24,200 L24,15.0314162 C24,11.1262512 26.1129749,9 30,9 L125,9 C127.800876,9 129.611374,10.1754024 130.475379,12.1074776 C130.981869,13.2400842 131.073265,14.3437255 131,15.0314162 L131,185 C131,189.299291 131.941949,191.711585 133.686324,192.88351 C135.033525,193.7886 136.550907,194 140.029283,194 L170,194 L170,196 L140.029283,196 C136.145348,196 134.370735,195.752763 132.570996,194.543643 C130.186875,192.941918 129,189.902379 129,185 L129,22.3355273 C129,16.3594364 129,16.3594364 129.004901,14.9325276 C128.955479,13.8433206 128.845412,13.3617639 128.649621,12.9239386 C128.107376,11.7113786 127.011624,11 125,11 L30,11 C27.2203584,11 26,12.2280262 26,15.0314162 L26,200 C26,203.955984 25.7755348,205.639473 24.5820503,207.4297 C22.9916922,209.815237 19.9451597,211 15,211 L5,211 Z" id="Path-4" fill="#FFFFFF" fill-rule="nonzero"></path>
        <path d="M5,251 L5,249 L320.034366,249 C323.509913,249 324.887502,248.811976 326.1504,247.936462 C327.79417,246.796906 328.681685,244.396518 328.681685,240.066311 L328.681685,70 C328.681685,66.1111064 330.823661,64 334.754797,64 L490.062036,64 C493.921273,64 496.019589,66.1162814 496.019589,70 L496.019589,240 C496.019589,244.334915 496.953916,246.753203 498.680647,247.914304 C500.005158,248.804941 501.446446,248.999983 504.949364,249 C504.960996,249 504.960996,250 504.97263,251 L504.97263,249 L515,249 L515,251 C509.958945,251 510,251 504.97263,251 C501.033674,250.999981 499.345592,250.771542 497.564637,249.573979 C495.195743,247.98107 494.019589,244.93687 494.019589,240 L494.019589,70 C494.019589,67.2170519 492.812869,66 490.062036,66 L334.754797,66 C331.921784,66 330.681685,67.2222269 330.681685,70 L330.681685,240.066311 C330.681685,244.987671 329.567491,248.001142 327.289876,249.580116 C325.561764,250.778142 323.936283,251 320.034366,251 L5,251 Z" id="Path-5-Copy" fill="#FFFFFF" fill-rule="nonzero"></path>
        <circle id="Oval-16-Copy-2" fill="#FFFFFF" cx="515" cy="250" r="2"></circle>
        <path d="M5,231 L5,229 L160.02686,229 C163.563165,228.9998 165.025558,228.797432 166.347452,227.901941 C168.06835,226.736153 169,224.319024 169,220 L169,95 C169,91.1143819 171.114382,89 175,89 L300,89 C303.885618,89 306,91.1143819 306,95 L306,205 C306,208.544016 306.192201,209.985527 307.08205,211.3203 C308.241692,213.059763 310.659445,214 315,214 L330,214 L330,216 L315,216 C310.05484,216 307.008308,214.815237 305.41795,212.4297 C304.224465,210.639473 304,208.955984 304,205 L304,95 C304,92.2189514 302.781049,91 300,91 L175,91 C172.218951,91 171,92.2189514 171,95 L171,220 C171,224.918962 169.82792,227.959876 167.469161,229.55777 C165.69119,230.76222 163.974518,230.999776 160.106638,230.999998 L148.472754,231 L5,231 Z" id="Path-5" fill="#FFFFFF" fill-rule="nonzero"></path>
        <g id="Group-6" transform="translate(75.000000, 90.000000)">
            <rect id="Rectangle-13-Copy-3" fill="#FFFFFF" x="0" y="0" width="45" height="55"></rect>
            <g id="Group" transform="translate(30.000000, 5.000000)">
                <circle id="Oval-5-Copy" fill="#000000" cx="5" cy="5" r="5"></circle>
                <circle id="Oval-6-Copy" fill="#FFFFFF" cx="2.5" cy="3.5" r="1"></circle>
            </g>
            <g id="Group-Copy-2" transform="translate(31.000000, 27.000000)">
                <circle id="Oval-5-Copy" fill="#000000" cx="4" cy="4" r="4"></circle>
                <circle id="Oval-6-Copy" fill="#FFFFFF" cx="3.4" cy="6.4" r="1"></circle>
            </g>
            <g id="Group-Copy" transform="translate(32.000000, 18.000000)">
                <circle id="Oval-5-Copy" fill="#000000" cx="3" cy="3" r="3"></circle>
                <circle id="Oval-6-Copy" fill="#FFFFFF" cx="4.3" cy="2.3" r="1"></circle>
            </g>
            <polygon id="Rectangle-15" fill="#000000" points="3 45 10 46.5 15 45 20 45 25 46.5 32.3448276 45 32.3448276 50.1428571 3 50.1428571"></polygon>
            <g id="Group-5" transform="translate(6.000000, 9.000000)">
                <circle id="Oval-10" fill="#000000" cx="14" cy="2" r="1"></circle>
                <circle id="Oval-10-Copy-2" fill="#000000" cx="2" cy="2" r="1"></circle>
                <polyline id="Path-6" stroke="#000000" stroke-width="0.5" points="2 5 2 8.20833333 2 16"></polyline>
                <circle id="Oval-10-Copy" fill="#000000" cx="14" cy="18" r="1"></circle>
                <circle id="Oval-10-Copy-3" fill="#000000" cx="2" cy="18" r="1"></circle>
                <circle id="Oval-10-Copy-4" fill="#000000" cx="2" cy="28" r="1"></circle>
                <polyline id="Path-6-Copy" stroke="#000000" stroke-width="0.5" points="14 20 14 22.3333333 14 28"></polyline>
                <polyline id="Path-6-Copy-3" stroke="#000000" stroke-width="0.5" points="14 4 14 7.5 14 16"></polyline>
                <polyline id="Path-6-Copy-2" stroke="#000000" stroke-width="0.5" points="2 20 2 21.75 2 26"></polyline>
                <circle id="Oval-11" stroke="#000000" cx="2" cy="2" r="2"></circle>
            </g>
        </g>
        <circle id="Oval-14" fill="#000000" cx="239.5" cy="216.5" r="1.5"></circle>
        <path d="M239.5,220.25 C237.428932,220.25 235.75,218.571068 235.75,216.5 C235.75,214.428932 237.428932,212.75 239.5,212.75 C241.571068,212.75 243.25,214.428932 243.25,216.5 C243.25,218.571068 241.571068,220.25 239.5,220.25 Z M239.5,219.75 C241.294925,219.75 242.75,218.294925 242.75,216.5 C242.75,214.705075 241.294925,213.25 239.5,213.25 C237.705075,213.25 236.25,214.705075 236.25,216.5 C236.25,218.294925 237.705075,219.75 239.5,219.75 Z" id="Oval-14-Copy" fill="#000000" fill-rule="nonzero"></path>
        <path d="M239.5,222.25 C236.324363,222.25 233.75,219.675637 233.75,216.5 C233.75,213.324363 236.324363,210.75 239.5,210.75 C242.675637,210.75 245.25,213.324363 245.25,216.5 C245.25,219.675637 242.675637,222.25 239.5,222.25 Z M239.5,221.75 C242.399495,221.75 244.75,219.399495 244.75,216.5 C244.75,213.600505 242.399495,211.25 239.5,211.25 C236.600505,211.25 234.25,213.600505 234.25,216.5 C234.25,219.399495 236.600505,221.75 239.5,221.75 Z" id="Oval-14-Copy-2" fill="#000000" fill-rule="nonzero"></path>
        <path d="M239.5,224.25 C235.219793,224.25 231.75,220.780207 231.75,216.5 C231.75,212.219793 235.219793,208.75 239.5,208.75 C243.780207,208.75 247.25,212.219793 247.25,216.5 C247.25,220.780207 243.780207,224.25 239.5,224.25 Z M239.5,223.75 C243.504064,223.75 246.75,220.504064 246.75,216.5 C246.75,212.495936 243.504064,209.25 239.5,209.25 C235.495936,209.25 232.25,212.495936 232.25,216.5 C232.25,220.504064 235.495936,223.75 239.5,223.75 Z" id="Oval-14-Copy-3" fill="#000000" fill-rule="nonzero"></path>
        <circle id="Oval-14-Copy-4" stroke-opacity="0.5" stroke="#000000" stroke-width="0.5" cx="239.5" cy="216.5" r="9.5"></circle>
        <path d="M239.5,228.25 C233.010654,228.25 227.75,222.989346 227.75,216.5 C227.75,210.010654 233.010654,204.75 239.5,204.75 C245.989346,204.75 251.25,210.010654 251.25,216.5 C251.25,222.989346 245.989346,228.25 239.5,228.25 Z M239.5,227.75 C245.713203,227.75 250.75,222.713203 250.75,216.5 C250.75,210.286797 245.713203,205.25 239.5,205.25 C233.286797,205.25 228.25,210.286797 228.25,216.5 C228.25,222.713203 233.286797,227.75 239.5,227.75 Z" id="Oval-14-Copy-5" fill="#000000" fill-rule="nonzero"></path>
        <circle id="Oval-14-Copy-6" stroke-opacity="0.5" stroke="#000000" stroke-width="0.5" cx="239.5" cy="216.5" r="13.5"></circle>
        <path d="M239.5,232.25 C230.801515,232.25 223.75,225.198485 223.75,216.5 C223.75,207.801515 230.801515,200.75 239.5,200.75 C248.198485,200.75 255.25,207.801515 255.25,216.5 C255.25,225.198485 248.198485,232.25 239.5,232.25 Z M239.5,231.75 C247.922342,231.75 254.75,224.922342 254.75,216.5 C254.75,208.077658 247.922342,201.25 239.5,201.25 C231.077658,201.25 224.25,208.077658 224.25,216.5 C224.25,224.922342 231.077658,231.75 239.5,231.75 Z" id="Oval-14-Copy-7" fill="#000000" fill-rule="nonzero"></path>
        <circle id="Oval-14-Copy-8" stroke-opacity="0.5" stroke="#000000" stroke-width="0.5" cx="239.5" cy="216.5" r="17.5"></circle>
        <path d="M239.5,236.25 C228.592376,236.25 219.75,227.407624 219.75,216.5 C219.75,205.592376 228.592376,196.75 239.5,196.75 C250.407624,196.75 259.25,205.592376 259.25,216.5 C259.25,227.407624 250.407624,236.25 239.5,236.25 Z M239.5,235.75 C250.131481,235.75 258.75,227.131481 258.75,216.5 C258.75,205.868519 250.131481,197.25 239.5,197.25 C228.868519,197.25 220.25,205.868519 220.25,216.5 C220.25,227.131481 228.868519,235.75 239.5,235.75 Z" id="Oval-14-Copy-9" fill="#000000" fill-rule="nonzero"></path>
        <polygon id="Line" fill="#000000" fill-rule="nonzero" points="184 185.5 184 185 195 185 195 185.5"></polygon>
        <polygon id="Line-Copy-3" fill="#000000" fill-rule="nonzero" points="233 185.5 233 185 244 185 244 185.5"></polygon>
        <polygon id="Line-Copy-4" fill="#000000" fill-rule="nonzero" points="235 188.5 235 188 242 188 242 188.5"></polygon>
        <polygon id="Line-Copy-5" fill="#000000" fill-rule="nonzero" points="237 191.5 237 191 240 191 240 191.5"></polygon>
        <polygon id="Line-Copy" fill="#000000" fill-rule="nonzero" points="184 190.5 184 190 191 190 191 190.5"></polygon>
        <polygon id="Line-Copy-2" fill="#000000" fill-rule="nonzero" points="184 195.5 184 195 200 195 200 195.5"></polygon>
        <circle id="Oval-15" fill="#000000" cx="448.5" cy="193.5" r="1.5"></circle>
        <path d="M448.5,197.25 C446.428932,197.25 444.75,195.571068 444.75,193.5 C444.75,191.428932 446.428932,189.75 448.5,189.75 C450.571068,189.75 452.25,191.428932 452.25,193.5 C452.25,195.571068 450.571068,197.25 448.5,197.25 Z M448.5,196.75 C450.294925,196.75 451.75,195.294925 451.75,193.5 C451.75,191.705075 450.294925,190.25 448.5,190.25 C446.705075,190.25 445.25,191.705075 445.25,193.5 C445.25,195.294925 446.705075,196.75 448.5,196.75 Z" id="Oval-15-Copy" fill="#000000" fill-rule="nonzero"></path>
        <circle id="Oval-15-Copy-15" fill="#000000" cx="385.5" cy="135.5" r="1.5"></circle>
        <path d="M385.5,139.25 C383.428932,139.25 381.75,137.571068 381.75,135.5 C381.75,133.428932 383.428932,131.75 385.5,131.75 C387.571068,131.75 389.25,133.428932 389.25,135.5 C389.25,137.571068 387.571068,139.25 385.5,139.25 Z M385.5,138.75 C387.294925,138.75 388.75,137.294925 388.75,135.5 C388.75,133.705075 387.294925,132.25 385.5,132.25 C383.705075,132.25 382.25,133.705075 382.25,135.5 C382.25,137.294925 383.705075,138.75 385.5,138.75 Z" id="Oval-15-Copy-14" fill="#000000" fill-rule="nonzero"></path>
        <circle id="Oval-15-Copy-5" fill="#000000" cx="447.5" cy="150.5" r="1.5"></circle>
        <path d="M447.5,154.25 C445.428932,154.25 443.75,152.571068 443.75,150.5 C443.75,148.428932 445.428932,146.75 447.5,146.75 C449.571068,146.75 451.25,148.428932 451.25,150.5 C451.25,152.571068 449.571068,154.25 447.5,154.25 Z M447.5,153.75 C449.294925,153.75 450.75,152.294925 450.75,150.5 C450.75,148.705075 449.294925,147.25 447.5,147.25 C445.705075,147.25 444.25,148.705075 444.25,150.5 C444.25,152.294925 445.705075,153.75 447.5,153.75 Z" id="Oval-15-Copy-4" fill="#000000" fill-rule="nonzero"></path>
        <circle id="Oval-15-Copy-3" fill="#000000" cx="470" cy="179" r="1"></circle>
        <path d="M470,181.25 C468.757359,181.25 467.75,180.242641 467.75,179 C467.75,177.757359 468.757359,176.75 470,176.75 C471.242641,176.75 472.25,177.757359 472.25,179 C472.25,180.242641 471.242641,181.25 470,181.25 Z M470,180.95 C471.076955,180.95 471.95,180.076955 471.95,179 C471.95,177.923045 471.076955,177.05 470,177.05 C468.923045,177.05 468.05,177.923045 468.05,179 C468.05,180.076955 468.923045,180.95 470,180.95 Z" id="Oval-15-Copy-2" fill="#000000" fill-rule="nonzero"></path>
        <circle id="Oval-15-Copy-7" fill="#000000" cx="430" cy="151" r="1"></circle>
        <path d="M430,154 C428.343146,154 427,152.656854 427,151 C427,149.343146 428.343146,148 430,148 C431.656854,148 433,149.343146 433,151 C433,152.656854 431.656854,154 430,154 Z M430,153.6 C431.43594,153.6 432.6,152.43594 432.6,151 C432.6,149.56406 431.43594,148.4 430,148.4 C428.56406,148.4 427.4,149.56406 427.4,151 C427.4,152.43594 428.56406,153.6 430,153.6 Z" id="Oval-15-Copy-6" fill="#000000" fill-rule="nonzero"></path>
        <polygon id="Path-12-Copy" fill="#000000" fill-rule="nonzero" points="467.361325 180.291987 467.638675 180.708013 452.638675 190.708013 452.361325 190.291987"></polygon>
        <polygon id="Path-12-Copy-3" fill="#000000" fill-rule="nonzero" points="467.361325 180.291987 467.638675 180.708013 452.638675 190.708013 452.361325 190.291987"></polygon>
        <polygon id="Path-12-Copy-4" fill="#000000" fill-rule="nonzero" points="447.75 174.491382 448.25 174.491382 448.25 189 447.75 189"></polygon>
        <polygon id="Path-12-Copy-5" fill="#000000" fill-rule="nonzero" points="447.75 155.491382 448.25 155.491382 448.25 170 447.75 170"></polygon>
        <path d="M443,150.491382 L434.5,150.491382" id="Path-12-Copy-6" stroke="#000000" stroke-width="0.5"></path>
        <polygon id="Path-12-Copy-7" fill="#000000" fill-rule="nonzero" points="426 150.241382 426 150.741382 404.5 150.741382 404.5 150.241382"></polygon>
        <polygon id="Path-12-Copy-2" fill="#000000" fill-rule="nonzero" points="448.25 198 448.75 198 448.75 220 448.25 220"></polygon>
        <polygon id="Path-12-Copy-9" fill="#000000" fill-rule="nonzero" points="406.25 219.5 406.75 219.5 406.75 235 406.25 235"></polygon>
        <polygon id="Path-13" fill="#000000" fill-rule="nonzero" points="426.839954 153.307945 427.160046 153.692055 415.160046 163.692055 414.839954 163.307945"></polygon>
        <polygon id="Path-13-Copy" fill="#000000" fill-rule="nonzero" points="411.839954 165.807945 412.160046 166.192055 400.160046 176.192055 399.839954 175.807945"></polygon>
        <polygon id="Path-15" fill="#000000" fill-rule="nonzero" points="351.75 175 351.25 175 351.25 143.5 351.75 143.5"></polygon>
        <polygon id="Path-16" fill="#000000" fill-rule="nonzero" points="397.547322 149.25452 397.452678 149.74548 355.952678 141.74548 356.047322 141.25452"></polygon>
        <rect id="Rectangle-27" fill="#000000" x="464" y="132" width="1" height="9"></rect>
        <rect id="Rectangle-27-Copy" fill="#000000" x="466" y="132" width="1" height="9"></rect>
        <rect id="Rectangle-27-Copy-2" fill="#000000" x="468" y="132" width="1" height="9"></rect>
        <rect id="Rectangle-27-Copy-3" fill="#000000" x="470" y="132" width="1" height="9"></rect>
        <rect id="Rectangle-27-Copy-4" fill="#000000" x="472" y="132" width="1" height="9"></rect>
        <polygon id="Path-19" fill="#000000" fill-rule="nonzero" points="443.450971 193.754855 443.549029 194.245145 428.549029 197.245145 428.450971 196.754855"></polygon>
        <path d="M351.5,201.5 L351.5,210.5 L356.5,210.5 L356.5,201.5 L351.5,201.5 Z M360,196 L360,194 L366,194 L366,203 L365.5,203.083333 L365.5,203.5 L363,203.5 L363,206 L360,206 L360,208 L357,208 L357,211 L351,211 L351,201 L354,201 L354,198 L354.545455,198.5 L357,198.5 L357,196 L360,196 Z M362.5,203.583333 L360,204 L360,205.5 L359.5,205.5 L359.5,203.041667 L357.5,201.208333 L357.5,198.5 L359.5,198.5 L359.5,203.041667 L360,203.5 L360,196.5 L357.5,196.5 L357.5,198.5 L357,198.5 L357,200.75 L357.5,201.208333 L357.5,205.5 L359.5,205.5 L359.5,206 L360,206 L360,205.5 L362.5,205.5 L362.5,203.583333 Z M357,200.75 L354.545455,198.5 L354.5,198.5 L354.5,201 L354,201 L354,208 L357,208 L357,207.5 L359.5,207.5 L359.5,206 L357,206 L357,207.5 L354.5,207.5 L354.5,201 L357,201 L357,200.75 Z M360,196 L360,196.5 L360.5,196.5 L360.5,203.5 L362.5,203.5 L362.5,203.583333 L365.5,203.083333 L365.5,194.5 L360.5,194.5 L360.5,196 L360,196 Z M360.5,196 L363,196 L363,203.5 L362.5,203.5 L362.5,196.5 L360.5,196.5 L360.5,196 Z" id="Combined-Shape" fill="#000000" fill-rule="nonzero"></path>
        <polygon id="Path-20-Copy-2" fill="#000000" fill-rule="nonzero" points="387 197.25 387 197.75 367 197.75 367 197.25"></polygon>
        <polygon id="Path-20-Copy-3" fill="#000000" fill-rule="nonzero" points="422 197.25 422 197.75 394 197.75 394 197.25"></polygon>
        <polygon id="Path-20-Copy-4" fill="#000000" fill-rule="nonzero" points="394 178 394 178.5 356 178.5 356 178"></polygon>
        <polygon id="Path-12-Copy-8" fill="#000000" fill-rule="nonzero" points="395.31369 219.333301 395.68631 219.666699 387.18631 229.166699 386.81369 228.833301"></polygon>
        <circle id="Oval-16" fill="#FFFFFF" cx="5" cy="210" r="2"></circle>
        <circle id="Oval-16-Copy" fill="#FFFFFF" cx="5" cy="230" r="2"></circle>
        <circle id="Oval-16-Copy-2" fill="#FFFFFF" cx="5" cy="250" r="2"></circle>
        <polygon id="Path-12" fill="#000000" fill-rule="nonzero" points="444.810909 196.836462 445.189091 197.163538 429.189091 215.663538 428.810909 215.336462"></polygon>
        <polygon id="Path-17" fill="#000000" fill-rule="nonzero" points="390.5 135.75 390.5 135.25 462 135.25 462 135.75"></polygon>
        <polygon id="Path-14" fill="#000000" fill-rule="nonzero" points="356.030385 139.248147 355.969615 138.751853 380.469615 135.751853 380.530385 136.248147"></polygon>
    </g>
</svg>
