<?xml version="1.0" encoding="UTF-8"?>
<svg width="680px" height="156px" viewBox="0 0 680 156" version="1.1" xmlns="http://www.w3.org/2000/svg" xmlns:xlink="http://www.w3.org/1999/xlink">
    <!-- Generator: Sketch 49 (51002) - http://www.bohemiancoding.com/sketch -->
    <title>Group 7</title>
    <desc>Created with Sketch.</desc>
    <defs></defs>
    <g id="Page-1" stroke="none" stroke-width="1" fill="none" fill-rule="evenodd">
        <g id="Logo-Copy" transform="translate(-200.000000, -462.000000)" fill-rule="nonzero">
            <g id="Group-7" transform="translate(200.000000, 462.000000)">
                <g id="Group-6">
                    <g id="Group-5">
                        <g id="Group" transform="translate(120.000000, 0.000000)" fill="#FFFFFF">
                            <polygon id="Line-Copy-2" points="0 0 12 0 12 156 0 156"></polygon>
                        </g>
                        <g id="Group-4" transform="translate(168.000000, 0.000000)" fill="#FFFFFF">
                            <polygon id="Line-Copy-3" points="55.4621695 0 67 4.26649254 11.5378305 156 0 151.733507"></polygon>
                            <polygon id="Line-Copy-10" points="94 129 94 135 44 135 44 129"></polygon>
                            <polygon id="Line-Copy-4" transform="translate(102.500000, 78.000000) scale(-1, 1) translate(-102.500000, -78.000000) " points="124.462169 0 136 4.26649254 80.5378305 156 69 151.733507"></polygon>
                        </g>
                        <g id="Group-3" transform="translate(336.000000, 0.000000)">
                            <polygon id="Line-Copy-5" fill="#FFFFFF" points="55.4621695 0 67 4.26649254 11.5378305 156 0 151.733507"></polygon>
                            <polygon id="Line-Copy-6" fill="#5411D9" transform="translate(101.500000, 78.000000) scale(-1, 1) translate(-101.500000, -78.000000) " points="123.462169 0 135 4.26649254 79.5378305 156 68 151.733507"></polygon>
                            <polygon id="Line-Copy-7" fill="#FFFFFF" points="131.154281 2 137 4.14999948 80.8457194 156 75 153.850001"></polygon>
                            <polygon id="Line-Copy-8" fill="#FFFFFF" transform="translate(170.500000, 78.000000) scale(1, -1) translate(-170.500000, -78.000000) " points="192.462169 0 204 4.26649254 148.537831 156 137 151.733507"></polygon>
                        </g>
                        <g id="Group-2" fill="#FFFFFF">
                            <polygon id="Line" points="0 0 12 0 12 156 0 156"></polygon>
                            <polygon id="Line-Copy" points="84 144 84 156 0 156 0 144"></polygon>
                        </g>
                    </g>
                    <polygon id="Line-Copy" fill="#FFFFFF" points="680 144 680 156 576 156 576 144"></polygon>
                </g>
            </g>
        </g>
    </g>
</svg>