<?xml version="1.0" encoding="UTF-8"?>
<svg width="239px" height="68px" viewBox="0 0 239 68" version="1.1" xmlns="http://www.w3.org/2000/svg" xmlns:xlink="http://www.w3.org/1999/xlink">
    <!-- Generator: Sketch 49 (51002) - http://www.bohemiancoding.com/sketch -->
    <title>Logo To Load</title>
    <desc>Created with Sketch.</desc>
    <defs></defs>
    <g id="Logo-To-Load" stroke="none" stroke-width="1" fill="none" fill-rule="evenodd">
        <g id="Group-7" fill-rule="nonzero">
            <g id="Group-6">
                <g id="Group-5">
                    <g id="Group" transform="translate(52.941176, 0.000000)" fill="#FFFFFF">
                        <polygon id="Line-Copy-2" points="0 0 5.29411765 0 5.29411765 68.8235294 0 68.8235294"></polygon>
                    </g>
                    <g id="Group-4" transform="translate(74.117647, 0.000000)" fill="#FFFFFF">
                        <polygon id="Line-Copy-3" points="24.4686042 0 29.5588235 1.88227612 5.09021935 68.8235294 0 66.9412533"></polygon>
                        <polygon id="Line-Copy-10" points="41.4705882 56.9117647 41.4705882 59.5588235 19.4117647 59.5588235 19.4117647 56.9117647"></polygon>
                        <polygon id="Line-Copy-4" transform="translate(45.220588, 34.411765) scale(-1, 1) translate(-45.220588, -34.411765) " points="54.9097806 0 60 1.88227612 35.5313958 68.8235294 30.4411765 66.9412533"></polygon>
                    </g>
                    <g id="Group-3" transform="translate(148.235294, 0.000000)">
                        <polygon id="Line-Copy-5" fill="#FFFFFF" points="24.4686042 0 29.5588235 1.88227612 5.09021935 68.8235294 0 66.9412533"></polygon>
                        <polygon id="Line-Copy-6" fill="#5411D9" transform="translate(44.779412, 34.411765) scale(-1, 1) translate(-44.779412, -34.411765) " points="54.4686042 0 59.5588235 1.88227612 35.0902194 68.8235294 30 66.9412533"></polygon>
                        <polygon id="Line-Copy-7" fill="#FFFFFF" points="57.8621826 0.882352941 60.4411765 1.83088213 35.6672291 68.8235294 33.0882353 67.8750002"></polygon>
                        <polygon id="Line-Copy-8" fill="#FFFFFF" transform="translate(75.220588, 34.411765) scale(1, -1) translate(-75.220588, -34.411765) " points="84.9097806 0 90 1.88227612 65.5313958 68.8235294 60.4411765 66.9412533"></polygon>
                    </g>
                    <g id="Group-2" fill="#FFFFFF">
                        <polygon id="Line" points="0 0 5.29411765 0 5.29411765 68.8235294 0 68.8235294"></polygon>
                        <polygon id="Line-Copy" points="37.0588235 63.5294118 37.0588235 68.8235294 0 68.8235294 0 63.5294118"></polygon>
                    </g>
                </g>
            </g>
        </g>
    </g>
</svg>