<svg width="120" height="39" viewBox="0 0 120 39" fill="none" xmlns="http://www.w3.org/2000/svg">
<path d="M7.79118 32.2061V26.7677H0V24.7621L7.79118 10.2597V4.66699H10.5297V10.2597L18.3594 24.7621V26.7677H10.5297V32.2061H7.79118ZM3.00848 24.2607H7.79118V14.7724L3.00848 24.2607ZM10.5297 24.2607H15.3124L10.5297 14.6952V24.2607Z" fill="#0E0E0E"/>
<path d="M39.3115 32.2061L24.6548 17.5494L36.573 5.63125H24.6548V2.89276H53.9681V5.63125H42.0499L53.9681 17.5494L39.3115 32.2061ZM39.3115 28.272L48.684 18.8994H29.9389L39.3115 28.272ZM29.9775 16.1609H48.6455L39.3115 6.82692L29.9775 16.1609Z" fill="#0E0E0E"/>
<path d="M75.2706 32.2061V29.4676H82.2904V7.40548H75.2706V4.66699H85.0289V32.2061H75.2706ZM57.914 32.2061V4.66699H67.6723V7.40548H60.6525V29.4676H67.6723V32.2061H57.914ZM70.1408 38.5702V0H72.8021V38.5702H70.1408Z" fill="#0E0E0E"/>
<path d="M104.495 32.2061L88.951 5.32269H120L104.495 32.2061ZM104.495 26.8491L114.643 7.40548H93.7513L99.1082 16.9387L104.495 26.8491Z" fill="#0E0E0E"/>
</svg>
