<svg width="225" height="73" viewBox="0 0 225 73" fill="none" xmlns="http://www.w3.org/2000/svg">
<path d="M15.536 61V50.848H0.992004V47.104L15.536 20.032V9.592H20.648V20.032L35.264 47.104V50.848H20.648V61H15.536ZM6.608 46.168H15.536V28.456L6.608 46.168ZM20.648 46.168H29.576L20.648 28.312V46.168Z" fill="white"/>
<path d="M74.3758 61L47.0158 33.64L69.2637 11.392H47.0158V6.28H101.736V11.392H79.4878L101.736 33.64L74.3758 61ZM74.3758 53.656L91.8717 36.16H56.8798L74.3758 53.656ZM56.9518 31.048H91.7998L74.3758 13.624L56.9518 31.048Z" fill="white"/>
<path d="M141.502 61V55.888H154.606V14.704H141.502V9.592H159.718V61H141.502ZM109.102 61V9.592H127.318V14.704H114.214V55.888H127.318V61H109.102ZM131.926 72.88V0.880005H136.894V72.88H131.926Z" fill="white"/>
<path d="M196.055 61L167.039 10.816H224.999L196.055 61ZM196.055 51L215 14.704H176L186 32.5L196.055 51Z" fill="white"/>
</svg>
