<svg width="500" height="56" viewBox="0 0 500 56" fill="none" xmlns="http://www.w3.org/2000/svg">
<path fill-rule="evenodd" clip-rule="evenodd" d="M68.5156 54.5642L68.5156 1.48876H105.888V54.5642H68.5156Z" fill="white" fill-opacity="0.15"/>
<path fill-rule="evenodd" clip-rule="evenodd" d="M278.738 54.5641L278.738 1.61913H316.111V54.5641H278.738Z" fill="white" fill-opacity="0.15"/>
<path d="M109.279 20.4803V54.5644H98.9641V1.49491H107.186L134.618 36.476V1.56966H144.933V54.5644H136.337L109.279 20.4803Z" fill="white"/>
<path d="M172.507 55.3119C169.368 55.3119 166.527 54.7887 163.986 53.7422C161.445 52.646 159.277 51.176 157.483 49.3322C155.689 47.4387 154.294 45.296 153.297 42.9041C152.351 40.4624 151.877 37.8961 151.877 35.2053C151.877 31.468 152.699 28.0546 154.344 24.9651C156.038 21.8756 158.43 19.409 161.519 17.5653C164.659 15.6717 168.346 14.7249 172.582 14.7249C176.867 14.7249 180.53 15.6717 183.569 17.5653C186.609 19.409 188.926 21.8756 190.521 24.9651C192.165 28.0048 192.987 31.2936 192.987 34.8315C192.987 35.4295 192.962 36.0524 192.913 36.7002C192.863 37.2982 192.813 37.7965 192.763 38.1951H162.491C162.69 40.1883 163.263 41.9324 164.21 43.4273C165.207 44.9222 166.453 46.0683 167.947 46.8656C169.492 47.6131 171.137 47.9868 172.881 47.9868C174.874 47.9868 176.743 47.5134 178.487 46.5666C180.281 45.57 181.501 44.2744 182.149 42.6799L190.745 45.0717C189.798 47.0649 188.428 48.8339 186.634 50.3787C184.89 51.9234 182.822 53.1443 180.43 54.0412C178.038 54.8883 175.397 55.3119 172.507 55.3119ZM162.267 31.8417H182.747C182.548 29.8485 181.975 28.1293 181.028 26.6843C180.131 25.1893 178.935 24.0432 177.44 23.2459C175.945 22.3988 174.276 21.9753 172.432 21.9753C170.638 21.9753 168.994 22.3988 167.499 23.2459C166.054 24.0432 164.858 25.1893 163.911 26.6843C163.014 28.1293 162.466 29.8485 162.267 31.8417Z" fill="white"/>
<path d="M217.178 55.3119C213.988 55.3119 211.123 54.7887 208.582 53.7422C206.04 52.646 203.873 51.151 202.079 49.2575C200.335 47.3639 198.989 45.1963 198.043 42.7546C197.096 40.3129 196.622 37.7466 196.622 35.0558C196.622 32.3151 197.096 29.7239 198.043 27.2822C198.989 24.8405 200.335 22.6729 202.079 20.7793C203.873 18.8858 206.04 17.4158 208.582 16.3693C211.123 15.2731 213.988 14.7249 217.178 14.7249C220.367 14.7249 223.207 15.2731 225.699 16.3693C228.24 17.4158 230.408 18.8858 232.201 20.7793C233.995 22.6729 235.341 24.8405 236.238 27.2822C237.185 29.7239 237.658 32.3151 237.658 35.0558C237.658 37.7466 237.185 40.3129 236.238 42.7546C235.341 45.1963 233.995 47.3639 232.201 49.2575C230.457 51.151 228.315 52.646 225.773 53.7422C223.232 54.7887 220.367 55.3119 217.178 55.3119ZM217.178 46.7909C219.071 46.7909 220.79 46.2926 222.335 45.296C223.88 44.2495 225.101 42.8543 225.998 41.1102C226.944 39.3163 227.418 37.2732 227.418 34.981C227.418 32.7387 226.944 30.7205 225.998 28.9266C225.101 27.1327 223.88 25.7375 222.335 24.7409C220.79 23.7443 219.071 23.2459 217.178 23.2459C215.234 23.2459 213.49 23.7692 211.945 24.8156C210.401 25.8122 209.18 27.2075 208.283 29.0014C207.386 30.7454 206.937 32.7636 206.937 35.0558C206.937 37.348 207.386 39.391 208.283 41.1849C209.18 42.929 210.401 44.2993 211.945 45.296C213.49 46.2926 215.234 46.7909 217.178 46.7909ZM197.669 54.8634L205.368 45.3707L209.553 48.4353L204.097 54.8634H197.669ZM210.301 47.5383L206.638 44.8475L224.204 21.8258L228.315 23.9934L210.301 47.5383ZM229.585 23.3954L224.876 21.0036L229.735 15.0987H236.312L229.585 23.3954Z" fill="white"/>
<path d="M280.82 54.5644H270.804V32.5892C270.804 29.4498 270.255 27.1576 269.159 25.7126C268.063 24.2675 266.543 23.5449 264.6 23.5449C263.254 23.5449 261.884 23.8937 260.489 24.5914C259.143 25.289 257.922 26.2607 256.826 27.5065C255.73 28.7024 254.933 30.0976 254.434 31.6922V54.5644H244.418V15.3976H253.463V22.648C254.459 20.9537 255.73 19.5336 257.275 18.3875C258.819 17.1915 260.588 16.2946 262.582 15.6966C264.625 15.0488 266.767 14.7249 269.01 14.7249C271.451 14.7249 273.445 15.1734 274.989 16.0703C276.584 16.9175 277.78 18.0885 278.577 19.5834C279.424 21.0285 279.997 22.6729 280.296 24.5166C280.645 26.3604 280.82 28.229 280.82 30.1226V54.5644Z" fill="white"/>
<path d="M289.304 54.5644V43.801H297.526V54.5644H289.304Z" fill="white"/>
<path d="M307.289 54.5644V1.49491H329.787C332.229 1.49491 334.471 1.99322 336.515 2.98983C338.558 3.98644 340.327 5.33187 341.821 7.0261C343.366 8.72034 344.562 10.6139 345.409 12.7068C346.256 14.7997 346.68 16.9424 346.68 19.1349C346.68 22.1248 345.982 24.9651 344.587 27.6559C343.192 30.3468 341.273 32.5393 338.832 34.2336C336.39 35.9278 333.5 36.7749 330.161 36.7749H317.604V54.5644H307.289ZM317.604 27.7307H329.563C330.809 27.7307 331.93 27.3819 332.927 26.6843C333.923 25.9866 334.721 24.99 335.319 23.6944C335.917 22.349 336.216 20.8292 336.216 19.1349C336.216 17.2912 335.867 15.7215 335.169 14.4259C334.521 13.1303 333.649 12.1587 332.553 11.5109C331.507 10.8631 330.36 10.5392 329.115 10.5392H317.604V27.7307Z" fill="white"/>
<path d="M352.813 0H362.829V42.0071C362.829 43.801 363.128 45.0219 363.725 45.6697C364.323 46.2677 365.146 46.5666 366.192 46.5666C366.989 46.5666 367.812 46.467 368.659 46.2677C369.506 46.0683 370.253 45.8192 370.901 45.5202L372.247 53.1443C370.901 53.7921 369.331 54.2904 367.538 54.6392C365.744 54.988 364.124 55.1624 362.679 55.1624C359.54 55.1624 357.098 54.3402 355.354 52.6958C353.66 51.0016 352.813 48.6097 352.813 45.5202V0Z" fill="white"/>
<path d="M373.92 42.9788C373.92 40.4375 374.617 38.22 376.012 36.3265C377.458 34.3831 379.451 32.8882 381.992 31.8417C384.533 30.7953 387.449 30.2721 390.737 30.2721C392.382 30.2721 394.051 30.3966 395.745 30.6458C397.44 30.8949 398.91 31.2936 400.155 31.8417V29.7488C400.155 27.2573 399.408 25.3388 397.913 23.9934C396.468 22.648 394.3 21.9753 391.41 21.9753C389.267 21.9753 387.224 22.349 385.281 23.0965C383.337 23.8439 381.294 24.9402 379.152 26.3853L375.938 19.8076C378.529 18.1134 381.17 16.8427 383.861 15.9956C386.601 15.1485 389.467 14.7249 392.457 14.7249C398.038 14.7249 402.373 16.1202 405.462 18.9107C408.602 21.7012 410.171 25.6876 410.171 30.87V43.3526C410.171 44.399 410.346 45.1465 410.694 45.5949C411.093 46.0434 411.716 46.3175 412.563 46.4171V54.5644C411.666 54.7139 410.844 54.8385 410.097 54.9382C409.399 55.0378 408.801 55.0877 408.303 55.0877C406.309 55.0877 404.79 54.6392 403.743 53.7422C402.747 52.8453 402.124 51.749 401.874 50.4534L401.65 48.4353C399.956 50.6278 397.838 52.3221 395.297 53.518C392.755 54.7139 390.164 55.3119 387.523 55.3119C384.932 55.3119 382.59 54.7887 380.497 53.7422C378.454 52.646 376.835 51.176 375.639 49.3322C374.493 47.4387 373.92 45.3209 373.92 42.9788ZM398.287 44.997C398.835 44.399 399.283 43.801 399.632 43.2031C399.981 42.6051 400.155 42.057 400.155 41.5587V37.5971C398.959 37.0988 397.664 36.7251 396.269 36.476C394.873 36.177 393.553 36.0275 392.307 36.0275C389.716 36.0275 387.573 36.6005 385.879 37.7466C384.234 38.8429 383.412 40.3129 383.412 42.1566C383.412 43.1532 383.686 44.1 384.234 44.997C384.783 45.8939 385.58 46.6165 386.626 47.1646C387.673 47.7127 388.919 47.9868 390.364 47.9868C391.859 47.9868 393.329 47.7127 394.774 47.1646C396.219 46.5666 397.39 45.8441 398.287 44.997ZM381.319 7.25034V1.04644H403.743V7.25034H381.319Z" fill="white"/>
<path d="M437.769 55.3119C434.58 55.3119 431.714 54.7887 429.173 53.7422C426.632 52.646 424.464 51.151 422.67 49.2575C420.876 47.3141 419.481 45.1216 418.484 42.6799C417.538 40.2382 417.064 37.6719 417.064 34.981C417.064 31.2936 417.886 27.93 419.531 24.8904C421.225 21.8009 423.617 19.3342 426.706 17.4905C429.796 15.6468 433.458 14.7249 437.694 14.7249C441.93 14.7249 445.567 15.6468 448.607 17.4905C451.647 19.3342 453.914 21.751 455.409 24.7409L445.617 27.7307C444.77 26.2856 443.649 25.1893 442.254 24.4419C440.858 23.6446 439.314 23.2459 437.619 23.2459C435.726 23.2459 433.982 23.7443 432.387 24.7409C430.842 25.6876 429.622 27.058 428.725 28.8519C427.828 30.5959 427.379 32.639 427.379 34.981C427.379 37.2732 427.828 39.3163 428.725 41.1102C429.671 42.8543 430.917 44.2495 432.462 45.296C434.007 46.2926 435.726 46.7909 437.619 46.7909C438.815 46.7909 439.936 46.5916 440.983 46.1929C442.079 45.7943 443.051 45.2461 443.898 44.5485C444.745 43.8509 445.368 43.0536 445.767 42.1566L455.558 45.1465C454.661 47.0899 453.341 48.8339 451.597 50.3787C449.903 51.9234 447.884 53.1443 445.542 54.0412C443.25 54.8883 440.659 55.3119 437.769 55.3119Z" fill="white"/>
<path d="M479.52 55.3119C476.38 55.3119 473.54 54.7887 470.999 53.7422C468.457 52.646 466.29 51.176 464.496 49.3322C462.702 47.4387 461.307 45.296 460.31 42.9041C459.363 40.4624 458.89 37.8961 458.89 35.2053C458.89 31.468 459.712 28.0546 461.356 24.9651C463.051 21.8756 465.442 19.409 468.532 17.5653C471.671 15.6717 475.359 14.7249 479.594 14.7249C483.88 14.7249 487.542 15.6717 490.582 17.5653C493.622 19.409 495.939 21.8756 497.533 24.9651C499.178 28.0048 500 31.2936 500 34.8315C500 35.4295 499.975 36.0524 499.925 36.7002C499.875 37.2982 499.826 37.7965 499.776 38.1951H469.504C469.703 40.1883 470.276 41.9324 471.223 43.4273C472.219 44.9222 473.465 46.0683 474.96 46.8656C476.505 47.6131 478.149 47.9868 479.893 47.9868C481.887 47.9868 483.755 47.5134 485.499 46.5666C487.293 45.57 488.514 44.2744 489.162 42.6799L497.758 45.0717C496.811 47.0649 495.44 48.8339 493.647 50.3787C491.902 51.9234 489.835 53.1443 487.443 54.0412C485.051 54.8883 482.41 55.3119 479.52 55.3119ZM469.279 31.8417H489.76C489.56 29.8485 488.987 28.1293 488.041 26.6843C487.144 25.1893 485.948 24.0432 484.453 23.2459C482.958 22.3988 481.289 21.9753 479.445 21.9753C477.651 21.9753 476.007 22.3988 474.512 23.2459C473.067 24.0432 471.871 25.1893 470.924 26.6843C470.027 28.1293 469.479 29.8485 469.279 31.8417Z" fill="white"/>
<rect x="46.7175" y="1.61914" width="40.4873" height="40.4873" transform="rotate(90 46.7175 1.61914)" fill="white"/>
<path fill-rule="evenodd" clip-rule="evenodd" d="M52.9449 54.5643H0V48.3354H52.9449V54.5643Z" fill="white"/>
</svg>
