<?xml version="1.0" encoding="UTF-8"?>
<svg width="520px" height="260px" viewBox="0 0 520 260" version="1.1" xmlns="http://www.w3.org/2000/svg" xmlns:xlink="http://www.w3.org/1999/xlink">
    <!-- Generator: Sketch 49 (51002) - http://www.bohemiancoding.com/sketch -->
    <title>As A Designer</title>
    <desc>Created with Sketch.</desc>
    <defs></defs>
    <g id="As-A-Designer" stroke="none" stroke-width="1" fill="none" fill-rule="evenodd">
        <path d="M90,120.4 L90,120 L95,120 L95,120.4 L90,120.4 Z M90,122 L90,121.6 L95,121.6 L95,122 L90,122 Z" id="Line-3-Copy-2" fill="#000000" fill-rule="nonzero"></path>
        <path d="M220,64.6 L220,64 L227,64 L227,64.6 L220,64.6 Z M220,67 L220,66.4 L227,66.4 L227,67 L220,67 Z" id="Line-3-Copy-3" fill="#000000" fill-rule="nonzero"></path>
        <rect id="Rectangle-10" fill="#000000" x="32" y="134" width="64" height="30"></rect>
        <rect id="Rectangle-10-Copy" fill="#000000" x="109" y="79" width="120" height="43"></rect>
        <g id="Group-2" transform="translate(136.000000, 86.000000)" fill="#FFFFFF" fill-rule="nonzero">
            <path d="M1.65,6.58823529 L1.65,23.0588235 L21.45,23.0588235 L21.45,6.58823529 L1.65,6.58823529 Z M0,4.94117647 L16.5,4.94117647 L16.5,24.7058824 L0,24.7058824 L0,4.94117647 Z" id="Rectangle-24-Copy"></path>
            <path d="M44.55,6.58823529 L44.55,23.0588235 L64.35,23.0588235 L64.35,6.58823529 L44.55,6.58823529 Z M47.85,4.94117647 L66,4.94117647 L66,24.7058824 L47.85,24.7058824 L47.85,4.94117647 Z" id="Rectangle-24-Copy-2"></path>
            <path d="M18.15,1.64705882 L18.15,26.3529412 L47.85,26.3529412 L47.85,1.64705882 L18.15,1.64705882 Z M16.5,0 L49.5,0 L49.5,28 L16.5,28 L16.5,0 Z" id="Rectangle-24"></path>
        </g>
        <rect id="Rectangle-10-Copy-4" fill="#000000" x="289" y="30" width="125" height="45"></rect>
        <g id="Group-2" transform="translate(319.000000, 39.000000)" fill="#FFFFFF" fill-rule="nonzero">
            <path d="M1.625,6.58823529 L1.625,23.0588235 L21.125,23.0588235 L21.125,6.58823529 L1.625,6.58823529 Z M0,4.94117647 L16.25,4.94117647 L16.25,24.7058824 L0,24.7058824 L0,4.94117647 Z" id="Rectangle-24-Copy"></path>
            <path d="M43.875,6.58823529 L43.875,23.0588235 L63.375,23.0588235 L63.375,6.58823529 L43.875,6.58823529 Z M47.125,4.94117647 L65,4.94117647 L65,24.7058824 L47.125,24.7058824 L47.125,4.94117647 Z" id="Rectangle-24-Copy-2"></path>
            <path d="M17.875,1.64705882 L17.875,26.3529412 L47.125,26.3529412 L47.125,1.64705882 L17.875,1.64705882 Z M16.25,0 L48.75,0 L48.75,28 L16.25,28 L16.25,0 Z" id="Rectangle-24"></path>
        </g>
        <g id="Group-4" transform="translate(289.000000, 90.000000)" fill="#000000" fill-rule="nonzero">
            <path d="M25,14 L25,13 L51,13 L51,14 L25,14 Z M25,6 L25,5 L42,5 L42,6 L25,6 Z M25,11 L25,10 L56,10 L56,11 L25,11 Z M10,20 C4.4771525,20 0,15.5228475 0,10 C0,4.4771525 4.4771525,0 10,0 C15.5228475,0 20,4.4771525 20,10 C20,15.5228475 15.5228475,20 10,20 Z M10,19 C14.9705627,19 19,14.9705627 19,10 C19,5.02943725 14.9705627,1 10,1 C5.02943725,1 1,5.02943725 1,10 C1,14.9705627 5.02943725,19 10,19 Z" id="Line-4-Copy-2"></path>
        </g>
        <g id="Group-4-Copy-9" transform="translate(354.000000, 90.000000)" fill="#000000" fill-rule="nonzero">
            <path d="M25,14 L25,13 L51,13 L51,14 L25,14 Z M25,6 L25,5 L42,5 L42,6 L25,6 Z M25,11 L25,10 L56,10 L56,11 L25,11 Z M10,20 C4.4771525,20 0,15.5228475 0,10 C0,4.4771525 4.4771525,0 10,0 C15.5228475,0 20,4.4771525 20,10 C20,15.5228475 15.5228475,20 10,20 Z M10,19 C14.9705627,19 19,14.9705627 19,10 C19,5.02943725 14.9705627,1 10,1 C5.02943725,1 1,5.02943725 1,10 C1,14.9705627 5.02943725,19 10,19 Z" id="Line-4-Copy-2"></path>
        </g>
        <g id="Group-4-Copy-10" transform="translate(419.000000, 90.000000)" fill="#000000" fill-rule="nonzero">
            <path d="M25,14 L25,13 L51,13 L51,14 L25,14 Z M25,6 L25,5 L42,5 L42,6 L25,6 Z M25,11 L25,10 L56,10 L56,11 L25,11 Z M10,20 C4.4771525,20 0,15.5228475 0,10 C0,4.4771525 4.4771525,0 10,0 C15.5228475,0 20,4.4771525 20,10 C20,15.5228475 15.5228475,20 10,20 Z M10,19 C14.9705627,19 19,14.9705627 19,10 C19,5.02943725 14.9705627,1 10,1 C5.02943725,1 1,5.02943725 1,10 C1,14.9705627 5.02943725,19 10,19 Z" id="Line-4-Copy-2"></path>
        </g>
        <g id="Group-4-Copy-13" transform="translate(289.000000, 120.000000)" fill="#000000" fill-rule="nonzero">
            <path d="M25,14 L25,13 L51,13 L51,14 L25,14 Z M25,6 L25,5 L42,5 L42,6 L25,6 Z M25,11 L25,10 L56,10 L56,11 L25,11 Z M10,20 C4.4771525,20 0,15.5228475 0,10 C0,4.4771525 4.4771525,0 10,0 C15.5228475,0 20,4.4771525 20,10 C20,15.5228475 15.5228475,20 10,20 Z M10,19 C14.9705627,19 19,14.9705627 19,10 C19,5.02943725 14.9705627,1 10,1 C5.02943725,1 1,5.02943725 1,10 C1,14.9705627 5.02943725,19 10,19 Z" id="Line-4-Copy-2"></path>
        </g>
        <g id="Group-4-Copy-12" transform="translate(354.000000, 120.000000)" fill="#000000" fill-rule="nonzero">
            <path d="M25,14 L25,13 L51,13 L51,14 L25,14 Z M25,6 L25,5 L42,5 L42,6 L25,6 Z M25,11 L25,10 L56,10 L56,11 L25,11 Z M10,20 C4.4771525,20 0,15.5228475 0,10 C0,4.4771525 4.4771525,0 10,0 C15.5228475,0 20,4.4771525 20,10 C20,15.5228475 15.5228475,20 10,20 Z M10,19 C14.9705627,19 19,14.9705627 19,10 C19,5.02943725 14.9705627,1 10,1 C5.02943725,1 1,5.02943725 1,10 C1,14.9705627 5.02943725,19 10,19 Z" id="Line-4-Copy-2"></path>
        </g>
        <g id="Group-4-Copy-11" transform="translate(419.000000, 120.000000)" fill="#000000" fill-rule="nonzero">
            <path d="M25,14 L25,13 L51,13 L51,14 L25,14 Z M25,6 L25,5 L42,5 L42,6 L25,6 Z M25,11 L25,10 L56,10 L56,11 L25,11 Z M10,20 C4.4771525,20 0,15.5228475 0,10 C0,4.4771525 4.4771525,0 10,0 C15.5228475,0 20,4.4771525 20,10 C20,15.5228475 15.5228475,20 10,20 Z M10,19 C14.9705627,19 19,14.9705627 19,10 C19,5.02943725 14.9705627,1 10,1 C5.02943725,1 1,5.02943725 1,10 C1,14.9705627 5.02943725,19 10,19 Z" id="Line-4-Copy-2"></path>
        </g>
        <g id="Group-4-Copy-16" transform="translate(289.000000, 150.000000)" fill="#000000" fill-rule="nonzero">
            <path d="M25,14 L25,13 L51,13 L51,14 L25,14 Z M25,6 L25,5 L42,5 L42,6 L25,6 Z M25,11 L25,10 L56,10 L56,11 L25,11 Z M10,20 C4.4771525,20 0,15.5228475 0,10 C0,4.4771525 4.4771525,0 10,0 C15.5228475,0 20,4.4771525 20,10 C20,15.5228475 15.5228475,20 10,20 Z M10,19 C14.9705627,19 19,14.9705627 19,10 C19,5.02943725 14.9705627,1 10,1 C5.02943725,1 1,5.02943725 1,10 C1,14.9705627 5.02943725,19 10,19 Z" id="Line-4-Copy-2"></path>
        </g>
        <g id="Group-4-Copy-15" transform="translate(354.000000, 150.000000)" fill="#000000" fill-rule="nonzero">
            <path d="M25,14 L25,13 L51,13 L51,14 L25,14 Z M25,6 L25,5 L42,5 L42,6 L25,6 Z M25,11 L25,10 L56,10 L56,11 L25,11 Z M10,20 C4.4771525,20 0,15.5228475 0,10 C0,4.4771525 4.4771525,0 10,0 C15.5228475,0 20,4.4771525 20,10 C20,15.5228475 15.5228475,20 10,20 Z M10,19 C14.9705627,19 19,14.9705627 19,10 C19,5.02943725 14.9705627,1 10,1 C5.02943725,1 1,5.02943725 1,10 C1,14.9705627 5.02943725,19 10,19 Z" id="Line-4-Copy-2"></path>
        </g>
        <g id="Group-4-Copy-14" transform="translate(419.000000, 150.000000)" fill="#000000" fill-rule="nonzero">
            <path d="M25,14 L25,13 L51,13 L51,14 L25,14 Z M25,6 L25,5 L42,5 L42,6 L25,6 Z M25,11 L25,10 L56,10 L56,11 L25,11 Z M10,20 C4.4771525,20 0,15.5228475 0,10 C0,4.4771525 4.4771525,0 10,0 C15.5228475,0 20,4.4771525 20,10 C20,15.5228475 15.5228475,20 10,20 Z M10,19 C14.9705627,19 19,14.9705627 19,10 C19,5.02943725 14.9705627,1 10,1 C5.02943725,1 1,5.02943725 1,10 C1,14.9705627 5.02943725,19 10,19 Z" id="Line-4-Copy-2"></path>
        </g>
        <rect id="Rectangle-10-Copy-6" fill="#000000" x="234" y="20" width="45" height="30"></rect>
        <rect id="Rectangle-10-Copy-7" fill="#000000" x="239" y="50" width="40" height="155"></rect>
        <rect id="Rectangle-10-Copy-5" fill="#000000" x="419" y="30" width="60" height="45"></rect>
        <g id="Group-4" transform="translate(32.000000, 171.000000)" fill="#000000" fill-rule="nonzero">
            <path d="M25,14 L25,13 L51,13 L51,14 L25,14 Z M25,6 L25,5 L42,5 L42,6 L25,6 Z M25,11 L25,10 L56,10 L56,11 L25,11 Z M10,20 C4.4771525,20 0,15.5228475 0,10 C0,4.4771525 4.4771525,0 10,0 C15.5228475,0 20,4.4771525 20,10 C20,15.5228475 15.5228475,20 10,20 Z M10,19 C14.9705627,19 19,14.9705627 19,10 C19,5.02943725 14.9705627,1 10,1 C5.02943725,1 1,5.02943725 1,10 C1,14.9705627 5.02943725,19 10,19 Z" id="Line-4-Copy-2"></path>
        </g>
        <g id="Group-4-Copy-3" transform="translate(109.000000, 130.000000)" fill="#000000" fill-rule="nonzero">
            <path d="M25,14 L25,13 L47,13 L47,14 L25,14 Z M25,6 L25,5 L42,5 L42,6 L25,6 Z M25,11 L25,10 L52,10 L52,11 L25,11 Z M10,20 C4.4771525,20 0,15.5228475 0,10 C0,4.4771525 4.4771525,0 10,0 C15.5228475,0 20,4.4771525 20,10 C20,15.5228475 15.5228475,20 10,20 Z M10,19 C14.9705627,19 19,14.9705627 19,10 C19,5.02943725 14.9705627,1 10,1 C5.02943725,1 1,5.02943725 1,10 C1,14.9705627 5.02943725,19 10,19 Z" id="Line-4-Copy-2"></path>
        </g>
        <g id="Group-4-Copy-4" transform="translate(169.000000, 130.000000)" fill="#000000" fill-rule="nonzero">
            <path d="M25,14 L25,13 L47,13 L47,14 L25,14 Z M25,6 L25,5 L42,5 L42,6 L25,6 Z M25,11 L25,10 L52,10 L52,11 L25,11 Z M10,20 C4.4771525,20 0,15.5228475 0,10 C0,4.4771525 4.4771525,0 10,0 C15.5228475,0 20,4.4771525 20,10 C20,15.5228475 15.5228475,20 10,20 Z M10,19 C14.9705627,19 19,14.9705627 19,10 C19,5.02943725 14.9705627,1 10,1 C5.02943725,1 1,5.02943725 1,10 C1,14.9705627 5.02943725,19 10,19 Z" id="Line-4-Copy-2"></path>
        </g>
        <g id="Group-4-Copy-6" transform="translate(109.000000, 155.000000)" fill="#000000" fill-rule="nonzero">
            <path d="M25,14 L25,13 L47,13 L47,14 L25,14 Z M25,6 L25,5 L42,5 L42,6 L25,6 Z M25,11 L25,10 L52,10 L52,11 L25,11 Z M10,20 C4.4771525,20 0,15.5228475 0,10 C0,4.4771525 4.4771525,0 10,0 C15.5228475,0 20,4.4771525 20,10 C20,15.5228475 15.5228475,20 10,20 Z M10,19 C14.9705627,19 19,14.9705627 19,10 C19,5.02943725 14.9705627,1 10,1 C5.02943725,1 1,5.02943725 1,10 C1,14.9705627 5.02943725,19 10,19 Z" id="Line-4-Copy-2"></path>
        </g>
        <g id="Group-4-Copy-5" transform="translate(169.000000, 155.000000)" fill="#000000" fill-rule="nonzero">
            <path d="M25,14 L25,13 L47,13 L47,14 L25,14 Z M25,6 L25,5 L42,5 L42,6 L25,6 Z M25,11 L25,10 L52,10 L52,11 L25,11 Z M10,20 C4.4771525,20 0,15.5228475 0,10 C0,4.4771525 4.4771525,0 10,0 C15.5228475,0 20,4.4771525 20,10 C20,15.5228475 15.5228475,20 10,20 Z M10,19 C14.9705627,19 19,14.9705627 19,10 C19,5.02943725 14.9705627,1 10,1 C5.02943725,1 1,5.02943725 1,10 C1,14.9705627 5.02943725,19 10,19 Z" id="Line-4-Copy-2"></path>
        </g>
        <g id="Group-4-Copy-8" transform="translate(109.000000, 180.000000)" fill="#000000" fill-rule="nonzero">
            <path d="M25,14 L25,13 L47,13 L47,14 L25,14 Z M25,6 L25,5 L42,5 L42,6 L25,6 Z M25,11 L25,10 L52,10 L52,11 L25,11 Z M10,20 C4.4771525,20 0,15.5228475 0,10 C0,4.4771525 4.4771525,0 10,0 C15.5228475,0 20,4.4771525 20,10 C20,15.5228475 15.5228475,20 10,20 Z M10,19 C14.9705627,19 19,14.9705627 19,10 C19,5.02943725 14.9705627,1 10,1 C5.02943725,1 1,5.02943725 1,10 C1,14.9705627 5.02943725,19 10,19 Z" id="Line-4-Copy-2"></path>
        </g>
        <g id="Group-4-Copy-7" transform="translate(169.000000, 180.000000)" fill="#000000" fill-rule="nonzero">
            <path d="M25,14 L25,13 L47,13 L47,14 L25,14 Z M25,6 L25,5 L42,5 L42,6 L25,6 Z M25,11 L25,10 L52,10 L52,11 L25,11 Z M10,20 C4.4771525,20 0,15.5228475 0,10 C0,4.4771525 4.4771525,0 10,0 C15.5228475,0 20,4.4771525 20,10 C20,15.5228475 15.5228475,20 10,20 Z M10,19 C14.9705627,19 19,14.9705627 19,10 C19,5.02943725 14.9705627,1 10,1 C5.02943725,1 1,5.02943725 1,10 C1,14.9705627 5.02943725,19 10,19 Z" id="Line-4-Copy-2"></path>
        </g>
        <g id="Group-4-Copy" transform="translate(32.000000, 195.000000)" fill="#000000" fill-rule="nonzero">
            <path d="M25,14 L25,13 L51,13 L51,14 L25,14 Z M25,6 L25,5 L42,5 L42,6 L25,6 Z M25,11 L25,10 L56,10 L56,11 L25,11 Z M10,20 C4.4771525,20 0,15.5228475 0,10 C0,4.4771525 4.4771525,0 10,0 C15.5228475,0 20,4.4771525 20,10 C20,15.5228475 15.5228475,20 10,20 Z M10,19 C14.9705627,19 19,14.9705627 19,10 C19,5.02943725 14.9705627,1 10,1 C5.02943725,1 1,5.02943725 1,10 C1,14.9705627 5.02943725,19 10,19 Z" id="Line-4-Copy-2"></path>
        </g>
        <g id="Group-4-Copy-2" transform="translate(32.000000, 219.000000)" fill="#000000" fill-rule="nonzero">
            <path d="M25,14 L25,13 L51,13 L51,14 L25,14 Z M25,6 L25,5 L42,5 L42,6 L25,6 Z M25,11 L25,10 L56,10 L56,11 L25,11 Z M10,20 C4.4771525,20 0,15.5228475 0,10 C0,4.4771525 4.4771525,0 10,0 C15.5228475,0 20,4.4771525 20,10 C20,15.5228475 15.5228475,20 10,20 Z M10,19 C14.9705627,19 19,14.9705627 19,10 C19,5.02943725 14.9705627,1 10,1 C5.02943725,1 1,5.02943725 1,10 C1,14.9705627 5.02943725,19 10,19 Z" id="Line-4-Copy-2"></path>
        </g>
        <path d="M5.02272626,251 L5.02272626,249 L14.0222806,249 C17.5661232,249 19.0075579,248.8078 20.342257,247.917961 C22.0816365,246.758323 23.021835,244.340562 23.021835,240 L23.021835,116 C23.021835,115.529268 23.0363757,115.180277 23.0956413,114.713539 C23.1841105,114.016813 23.3535133,113.339172 23.6287761,112.693996 C24.6098086,110.394598 26.704712,109 30.0215677,109 L98.0185375,109 C101.335393,109 103.430297,110.394598 104.411329,112.693996 C104.686592,113.339172 104.855995,114.016813 104.944464,114.713539 C105.003729,115.180277 105.01827,115.529268 105.01827,116 L105.01827,240 C105.01827,241.033435 105.02426,241.500649 105.053391,242.07347 C105.296746,246.858651 107.338628,249 114.017825,249 L515,249 L515,251 L114.017825,251 C106.227934,251 103.351356,247.983294 103.055972,242.175051 C103.024553,241.557237 103.01827,241.067156 103.01827,240 L103.01827,116 C103.01827,115.062469 102.921177,114.297826 102.57176,113.478844 C101.904055,111.913839 100.531326,111 98.0185375,111 L30.0215677,111 C27.5087792,111 26.1360504,111.913839 25.468345,113.478844 C25.1189283,114.297826 25.021835,115.062469 25.021835,116 L25.021835,240 C25.021835,244.945152 23.8371283,247.991677 21.4516916,249.582039 C19.6615299,250.775533 17.9781039,251 14.0222806,251 L5.02272626,251 Z" id="Line-2" fill="#000000" fill-rule="nonzero"></path>
        <circle id="Oval" fill="#000000" cx="5" cy="250" r="2"></circle>
        <path d="M100,111 L98,111 L98,56 C98,55.5292658 98.0145414,55.1802734 98.0738099,54.7135336 C98.1622835,54.0168042 98.3316946,53.3391596 98.6069708,52.6939811 C99.5880456,50.394587 101.683025,49 105,49 L233,49 C236.316975,49 238.411954,50.394587 239.393029,52.6939811 C239.668305,53.3391596 239.837717,54.0168042 239.92619,54.7135336 C239.985459,55.1802734 240,55.5292658 240,56 L240,220 C240,224.340555 240.940237,226.758308 242.6797,227.91795 C244.014473,228.807799 245.455984,229 249,229 L515,229 L515,231 L249,231 C245.044016,231 243.360527,230.775535 241.5703,229.58205 C239.184763,227.991692 238,224.94516 238,220 L238,56 C238,55.0624739 237.902903,54.2978355 237.553473,53.4788584 C236.885736,51.9138509 235.512929,51 233,51 L105,51 C102.487071,51 101.114264,51.9138509 100.446527,53.4788584 C100.097097,54.2978355 100,55.0624739 100,56 L100,111 Z" id="Line-2-Copy" fill="#000000" fill-rule="nonzero"></path>
        <path d="M233,49 L232,49 L232,47 L233,47 C238.224404,47 242,50.6114399 242,56 L242,219 L240,219 L240,56 C240,51.7363861 237.139233,49 233,49 Z" id="Line-2-Copy-3" fill="#FFFFFF" fill-rule="nonzero"></path>
        <path d="M226.035804,50 L226.035804,51 L224.035804,51 L224.035804,50 C224.035804,49.7941007 224.022844,43.2461826 224.017904,40.419407 C224.013029,37.6301746 224.009023,35.0032354 224.006006,32.5213564 C223.992034,21.0273491 223.998564,15.1924525 224.045686,14.8597605 C224.113636,14.3518699 224.145084,14.1224574 224.18326,13.884734 C224.242877,13.5134973 224.310573,13.1835415 224.397552,12.8632655 C225.060614,10.4217359 226.793358,9 230.035804,9 L489,9 C491.580326,9 493.324388,10.1627077 494.269427,12.0527864 C494.82008,13.1540917 495,14.2336127 495,15 L495,200 C495,204.340555 495.940237,206.758308 497.6797,207.91795 C499.014473,208.807799 500.455984,209 504,209 L515,209 L515,211 L504,211 C500.044016,211 498.360527,210.775535 496.5703,209.58205 C494.184763,207.991692 493,204.94516 493,200 L493,15 C493,14.8956561 492.984326,14.6762173 492.935481,14.383149 C492.85317,13.8892847 492.705513,13.3970947 492.480573,12.9472136 C491.863112,11.7122923 490.794674,11 489,11 L230.035804,11 C227.725453,11 226.761132,11.7912368 226.327643,13.3874325 C226.210027,13.820519 226.186851,13.964831 226.042152,15.0234326 C226.001675,15.3114239 225.993724,22.4162257 226.006005,32.5189252 C226.009021,35.0004165 226.013027,37.6270108 226.017901,40.4159119 C226.022835,43.2395998 226.035804,49.791787 226.035804,50 Z" id="Line-2-Copy-2" fill="#000000" fill-rule="nonzero"></path>
        <circle id="Oval" fill="#000000" cx="515" cy="210" r="2"></circle>
        <circle id="Oval-Copy" fill="#000000" cx="515" cy="230" r="2"></circle>
        <circle id="Oval-Copy-2" fill="#000000" cx="515" cy="250" r="2"></circle>
        <polygon id="Line-5-Copy-6" fill="#FFFFFF" fill-rule="nonzero" points="247 80 247 78 266 78 266 80"></polygon>
        <polygon id="Line-5-Copy-8" fill="#FFFFFF" fill-rule="nonzero" points="247 96 247 94 266 94 266 96"></polygon>
        <polygon id="Line-5-Copy-7" fill="#FFFFFF" fill-rule="nonzero" points="247 88 247 86 262 86 262 88"></polygon>
        <g id="Group" transform="translate(169.000000, 210.000000)">
            <rect id="Rectangle-11" fill="#000000" x="0" y="0" width="55" height="20"></rect>
            <polygon id="Line-5-Copy" fill="#FFFFFF" fill-rule="nonzero" points="4 8 4 7 21 7 21 8"></polygon>
            <path d="M4,5 L4,4 L28,4 L28,5 L4,5 Z M5.5,17 C4.67157288,17 4,16.3284271 4,15.5 C4,14.6715729 4.67157288,14 5.5,14 C6.32842712,14 7,14.6715729 7,15.5 C7,16.3284271 6.32842712,17 5.5,17 Z M43,5 L43,4 L50,4 L50,5 L43,5 Z M33,16 L33,15 L50,15 L50,16 L33,16 Z" id="Line-5" fill="#FFFFFF" fill-rule="nonzero"></path>
        </g>
        <path d="M34.7017544,123.857143 L34.7017544,123.333333 L37.1578947,123.333333 L37.1578947,123.857143 L34.7017544,123.857143 Z M34.7017544,119.666667 L34.7017544,119.142857 L37.1578947,119.142857 L37.1578947,119.666667 L34.7017544,119.666667 Z M41.8245614,123.857143 C40.6037214,123.857143 39.6140351,122.801814 39.6140351,121.5 C39.6140351,120.198186 40.6037214,119.142857 41.8245614,119.142857 C43.0454014,119.142857 44.0350877,120.198186 44.0350877,121.5 C44.0350877,122.801814 43.0454014,123.857143 41.8245614,123.857143 Z M41.8245614,123.333333 C42.7741036,123.333333 43.5438596,122.512522 43.5438596,121.5 C43.5438596,120.487478 42.7741036,119.666667 41.8245614,119.666667 C40.8750192,119.666667 40.1052632,120.487478 40.1052632,121.5 C40.1052632,122.512522 40.8750192,123.333333 41.8245614,123.333333 Z M40.8421053,127 C37.9934787,127 35.6842105,124.537566 35.6842105,121.5 C35.6842105,118.462434 37.9934787,116 40.8421053,116 C43.6907319,116 46,118.462434 46,121.5 C46,124.537566 43.6907319,127 40.8421053,127 Z M40.8421053,126.47619 C43.4194341,126.47619 45.5087719,124.248274 45.5087719,121.5 C45.5087719,118.751726 43.4194341,116.52381 40.8421053,116.52381 C38.2647764,116.52381 36.1754386,118.751726 36.1754386,121.5 C36.1754386,124.248274 38.2647764,126.47619 40.8421053,126.47619 Z M32.4912281,116.785714 L32.4912281,126.214286 L41.3333333,126.214286 L41.3333333,116.785714 L32.4912281,116.785714 Z M32,116.261905 L41.8245614,116.261905 L41.8245614,126.738095 L32,126.738095 L32,116.261905 Z" id="Line-Copy" fill="#000000" fill-rule="nonzero"></path>
        <path d="M111.701754,67.8571429 L111.701754,67.3333333 L114.157895,67.3333333 L114.157895,67.8571429 L111.701754,67.8571429 Z M111.701754,63.6666667 L111.701754,63.1428571 L114.157895,63.1428571 L114.157895,63.6666667 L111.701754,63.6666667 Z M118.824561,67.8571429 C117.603721,67.8571429 116.614035,66.8018141 116.614035,65.5 C116.614035,64.1981859 117.603721,63.1428571 118.824561,63.1428571 C120.045401,63.1428571 121.035088,64.1981859 121.035088,65.5 C121.035088,66.8018141 120.045401,67.8571429 118.824561,67.8571429 Z M118.824561,67.3333333 C119.774104,67.3333333 120.54386,66.512522 120.54386,65.5 C120.54386,64.487478 119.774104,63.6666667 118.824561,63.6666667 C117.875019,63.6666667 117.105263,64.487478 117.105263,65.5 C117.105263,66.512522 117.875019,67.3333333 118.824561,67.3333333 Z M117.842105,71 C114.993479,71 112.684211,68.5375661 112.684211,65.5 C112.684211,62.4624339 114.993479,60 117.842105,60 C120.690732,60 123,62.4624339 123,65.5 C123,68.5375661 120.690732,71 117.842105,71 Z M117.842105,70.4761905 C120.419434,70.4761905 122.508772,68.2482741 122.508772,65.5 C122.508772,62.7517259 120.419434,60.5238095 117.842105,60.5238095 C115.264776,60.5238095 113.175439,62.7517259 113.175439,65.5 C113.175439,68.2482741 115.264776,70.4761905 117.842105,70.4761905 Z M109.491228,60.7857143 L109.491228,70.2142857 L118.333333,70.2142857 L118.333333,60.7857143 L109.491228,60.7857143 Z M109,60.2619048 L118.824561,60.2619048 L118.824561,70.7380952 L109,70.7380952 L109,60.2619048 Z" id="Line-Copy-2" fill="#000000" fill-rule="nonzero"></path>
        <path d="M248.210526,43.2857143 L248.210526,42.3333333 L252.947368,42.3333333 L252.947368,43.2857143 L248.210526,43.2857143 Z M248.210526,35.6666667 L248.210526,34.7142857 L252.947368,34.7142857 L252.947368,35.6666667 L248.210526,35.6666667 Z M261.947368,43.2857143 C259.592891,43.2857143 257.684211,41.3669346 257.684211,39 C257.684211,36.6330654 259.592891,34.7142857 261.947368,34.7142857 C264.301846,34.7142857 266.210526,36.6330654 266.210526,39 C266.210526,41.3669346 264.301846,43.2857143 261.947368,43.2857143 Z M261.947368,42.3333333 C263.778628,42.3333333 265.263158,40.8409492 265.263158,39 C265.263158,37.1590508 263.778628,35.6666667 261.947368,35.6666667 C260.116108,35.6666667 258.631579,37.1590508 258.631579,39 C258.631579,40.8409492 260.116108,42.3333333 261.947368,42.3333333 Z M260.052632,49 C254.558852,49 250.105263,44.5228475 250.105263,39 C250.105263,33.4771525 254.558852,29 260.052632,29 C265.546411,29 270,33.4771525 270,39 C270,44.5228475 265.546411,49 260.052632,49 Z M260.052632,48.047619 C265.023194,48.047619 269.052632,43.996862 269.052632,39 C269.052632,34.003138 265.023194,29.952381 260.052632,29.952381 C255.082069,29.952381 251.052632,34.003138 251.052632,39 C251.052632,43.996862 255.082069,48.047619 260.052632,48.047619 Z M243.947368,30.4285714 L243.947368,47.5714286 L261,47.5714286 L261,30.4285714 L243.947368,30.4285714 Z M243,29.4761905 L261.947368,29.4761905 L261.947368,48.5238095 L243,48.5238095 L243,29.4761905 Z" id="Line-Copy-3" fill="#FFFFFF" fill-rule="nonzero"></path>
        <g id="Group" transform="translate(419.000000, 180.000000)">
            <rect id="Rectangle-11" fill="#000000" x="0" y="0" width="55" height="20"></rect>
            <polygon id="Line-5-Copy" fill="#FFFFFF" fill-rule="nonzero" points="4 8 4 7 21 7 21 8"></polygon>
            <path d="M4,5 L4,4 L28,4 L28,5 L4,5 Z M5.5,17 C4.67157288,17 4,16.3284271 4,15.5 C4,14.6715729 4.67157288,14 5.5,14 C6.32842712,14 7,14.6715729 7,15.5 C7,16.3284271 6.32842712,17 5.5,17 Z M43,5 L43,4 L50,4 L50,5 L43,5 Z M33,16 L33,15 L50,15 L50,16 L33,16 Z" id="Line-5" fill="#FFFFFF" fill-rule="nonzero"></path>
        </g>
        <g id="Group-2" transform="translate(44.000000, 140.000000)" fill="#FFFFFF" fill-rule="nonzero">
            <path d="M1,4 L1,14 L13,14 L13,4 L1,4 Z M0,3 L10,3 L10,15 L0,15 L0,3 Z" id="Rectangle-24-Copy"></path>
            <path d="M27,4 L27,14 L39,14 L39,4 L27,4 Z M29,3 L40,3 L40,15 L29,15 L29,3 Z" id="Rectangle-24-Copy-2"></path>
            <path d="M11,1 L11,16 L29,16 L29,1 L11,1 Z M10,0 L30,0 L30,17 L10,17 L10,0 Z" id="Rectangle-24"></path>
        </g>
        <rect id="Rectangle-25" fill="#FFFFFF" x="428" y="42" width="30" height="2"></rect>
        <rect id="Rectangle-25-Copy" fill="#FFFFFF" x="428" y="47" width="21" height="1"></rect>
        <rect id="Rectangle-25-Copy-2" fill="#FFFFFF" x="428" y="56" width="18" height="1"></rect>
        <rect id="Rectangle-25-Copy-3" fill="#FFFFFF" x="428" y="62" width="23" height="1"></rect>
    </g>
</svg>
