<?xml version="1.0" encoding="UTF-8"?>
<svg width="188px" height="188px" viewBox="0 0 188 188" version="1.1" xmlns="http://www.w3.org/2000/svg" xmlns:xlink="http://www.w3.org/1999/xlink">
    <!-- Generator: Sketch 55.2 (78181) - https://sketchapp.com -->
    <title>Group</title>
    <desc>Created with Sketch.</desc>
    <g id="Page-1" stroke="none" stroke-width="1" fill="none" fill-rule="evenodd">
        <g id="WorkCheckout" transform="translate(-626.000000, -239.000000)" fill="#FFFFFF" fill-rule="nonzero">
            <g id="Group" transform="translate(626.000000, 239.000000)">
                <path d="M94,188 C145.914766,188 188,145.914766 188,94 C188,42.0852335 145.914766,0 94,0 C42.0852335,0 0,42.0852335 0,94 C0,145.914766 42.0852335,188 94,188 Z M94,180 C46.5035115,180 8,141.496488 8,94 C8,46.5035115 46.5035115,8 94,8 C141.496488,8 180,46.5035115 180,94 C180,141.496488 141.496488,180 94,180 Z" id="Oval-Copy"></path>
                <path d="M81,93.0152198 L81,81 L92.9688239,81 L100.937933,73 L101,73 L101,61 L61,61 L61,101 L73.0460524,101 L81,93.0152198 Z M109,81 L109,73 L101,73 L101,81 L109,81 Z M81,109 L81,101 L73.0460524,101 L73,101.046231 L73,109 L81,109 Z M109,73 L135,73 L135,135 L73,135 L73,109 L53,109 L53,53 L109,53 L109,73 Z M81,93.0152198 L81,101 L101,101 L101,81 L92.9688239,81 L81,93.0152198 Z M109,81 L109,109 L81,109 L81,127 L127,127 L127,81 L109,81 Z" id="Combined-Shape"></path>
            </g>
        </g>
    </g>
</svg>