<?xml version="1.0" encoding="UTF-8"?>
<svg width="295px" height="93px" viewBox="0 0 295 93" version="1.1" xmlns="http://www.w3.org/2000/svg" xmlns:xlink="http://www.w3.org/1999/xlink">
    <!-- Generator: Sketch 55.2 (78181) - https://sketchapp.com -->
    <title>Group 2 Copy</title>
    <desc>Created with Sketch.</desc>
    <g id="Page-1" stroke="none" stroke-width="1" fill="none" fill-rule="evenodd">
        <g id="WorkLuar" transform="translate(-573.000000, -286.000000)">
            <g id="Group-2-Copy" transform="translate(573.000000, 286.000000)">
                <rect id="Rectangle" fill-opacity="0" fill="#D8D8D8" fill-rule="nonzero" x="0" y="0" width="295" height="93.7948718"></rect>
                <path d="M106.2,0 L111.527034,0 L111.527034,92.563968 L106.2,92.563968 L106.2,0 Z M131.472441,77.6700316 C128.994751,73.3618682 127.384252,68.4382529 127.012598,63.3915472 C126.764829,61.4221011 126.888714,60.1911973 127.136483,31.0187765 L131.844094,31.0187765 L131.844094,64.1300895 C133.08294,77.1776701 145.099738,87.5172623 156.373228,87.5172623 C167.522835,87.5172623 178.176903,79.1471162 180.778478,66.4688068 L180.778478,31.0187765 L185.486089,31.0187765 L185.486089,92.563968 L180.778478,92.563968 L180.778478,79.393297 C180.778478,79.393297 177.309711,83.57837 174.088714,86.1632681 C169.009449,90.2252507 162.815223,92.563968 156.373228,92.563968 C146.214698,92.563968 136.92336,87.0249007 131.472441,77.6700316 Z M257.215223,92.6870583 L251.888189,92.6870583 L251.888189,80.6242008 L245.446194,85.9170873 C240.11916,90.3483411 233.553281,92.6870583 226.615748,92.6870583 C210.139108,92.6870583 196.75958,78.9009355 196.75958,62.037553 C196.75958,45.0510802 210.139108,31.3880476 226.615748,31.3880476 C233.553281,31.3880476 240.11916,33.7267649 245.446194,38.1580187 L251.888189,43.4509052 L251.888189,31.2649573 L257.215223,31.2649573 L257.215223,92.6870583 Z M251.268766,65.3609933 L251.268766,58.7141127 C249.534383,45.7896225 239.375853,36.8040245 226.615748,36.8040245 C212.616798,36.8040245 201.96273,47.7590686 201.96273,62.037553 C201.96273,76.3160374 212.616798,87.1479911 226.615748,87.1479911 C239.375853,87.1479911 249.534383,78.1623932 251.268766,65.3609933 Z M295,30.8956861 L295,35.3269399 C283.850394,36.311663 275.302362,45.9127128 273.072441,57.1139377 L273.072441,92.6870583 L268.860367,92.6870583 L268.860367,30.8956861 L273.072441,30.8956861 L273.072441,45.2972609 C273.072441,45.2972609 275.674016,40.9890975 279.514436,37.4194764 C283.850394,33.4805842 289.177428,31.511138 295,30.8956861 Z M155.288,18.7589744 L228.92,18.7589744 L155.288,18.7589744 Z" id="luar" fill="#FFFFFF"></path>
                <g id="Group" transform="translate(143.112821, 11.724359)" fill-rule="nonzero">
                    <polygon id="Path-3" fill="#FFFFFF" points="0.375179487 5.15871795 0.375179487 1.40692308 75.8951795 1.40692308 75.8951795 5.15871795"></polygon>
                    <polygon id="Path-3-Copy" fill-opacity="0.3" fill="#24252A" points="57.4871795 5.15871795 57.4871795 1.40692308 69.2871795 1.40692308 69.2871795 5.15871795"></polygon>
                </g>
                <ellipse id="Oval-2" fill="#FFFFFF" fill-rule="nonzero" cx="55.0666667" cy="31.2649573" rx="19.6666667" ry="19.5405983"></ellipse>
                <ellipse id="Oval-2-Copy" fill="#FFFFFF" fill-rule="nonzero" cx="35.4" cy="74.2542735" rx="11.8" ry="11.724359"></ellipse>
                <ellipse id="Oval-2-Copy-2" fill-opacity="0.6" fill="#FFFFFF" fill-rule="nonzero" cx="11.8" cy="50.8055556" rx="11.8" ry="11.724359"></ellipse>
            </g>
        </g>
    </g>
</svg>